<svg xmlns="http://www.w3.org/2000/svg" width="800" height="6926" viewBox="0 0 800 6926"><rect width="100%" height="100%" fill="#FFFFFF" rx="12"/><text x="190" y="30" fill="#1E293B" font-family="system-ui,-apple-system,sans-serif" font-size="16" font-weight="600">Memory Allocation (heap allocs/op) — Sequential</text><rect x="190" y="14" width="14" height="14" rx="3" fill="#3B82F6"/><text x="208" y="26" fill="#64748B" font-family="system-ui,sans-serif" font-size="12">go-argus</text><rect x="300" y="14" width="14" height="14" rx="3" fill="#F97316"/><text x="318" y="26" fill="#64748B" font-family="system-ui,sans-serif" font-size="12">validator/v10</text><text x="180" y="72" fill="#334155" font-family="monospace" font-size="12" text-anchor="end">ComplexOrder_Invalid</text><rect x="190" y="50" width="157.1" height="28" rx="4" fill="#3B82F6" opacity="0.9"/><text x="353" y="72" fill="#475569" font-family="monospace" font-size="11">16 (2520B)</text><rect x="190" y="84" width="402.7" height="28" rx="4" fill="#F97316" opacity="0.9"/><text x="598" y="106" fill="#475569" font-family="monospace" font-size="11">41 (3081B)</text><text x="180" y="154" fill="#334155" font-family="monospace" font-size="12" text-anchor="end">ComplexOrder_Valid</text><rect x="190" y="132" width="9.8" height="28" rx="4" fill="#3B82F6" opacity="0.9"/><text x="205" y="154" fill="#475569" font-family="monospace" font-size="11">1 (208B)</text><rect x="190" y="166" width="186.6" height="28" rx="4" fill="#F97316" opacity="0.9"/><text x="382" y="188" fill="#475569" font-family="monospace" font-size="11">19 (581B)</text><text x="180" y="236" fill="#334155" font-family="monospace" font-size="12" text-anchor="end">EqField</text><rect x="190" y="214" width="0.0" height="28" rx="4" fill="#3B82F6" opacity="0.9"/><text x="194" y="236" fill="#475569" font-family="monospace" font-size="11">0</text><rect x="190" y="248" width="0.0" height="28" rx="4" fill="#F97316" opacity="0.9"/><text x="194" y="270" fill="#475569" font-family="monospace" font-size="11">0</text><text x="180" y="318" fill="#334155" font-family="monospace" font-size="12" text-anchor="end">FieldArrayDiveFailure</text><rect x="190" y="296" width="78.6" height="28" rx="4" fill="#3B82F6" opacity="0.9"/><text x="274" y="318" fill="#475569" font-family="monospace" font-size="11">8 (256B)</text><rect x="190" y="330" width="127.7" height="28" rx="4" fill="#F97316" opacity="0.9"/><text x="323" y="352" fill="#475569" font-family="monospace" font-size="11">13 (348B)</text><text x="180" y="400" fill="#334155" font-family="monospace" font-size="12" text-anchor="end">FieldArrayDiveSuccess</text><rect x="190" y="378" width="9.8" height="28" rx="4" fill="#3B82F6" opacity="0.9"/><text x="205" y="400" fill="#475569" font-family="monospace" font-size="11">1 (24B)</text><rect x="190" y="412" width="78.6" height="28" rx="4" fill="#F97316" opacity="0.9"/><text x="274" y="434" fill="#475569" font-family="monospace" font-size="11">8 (145B)</text><text x="180" y="482" fill="#334155" font-family="monospace" font-size="12" text-anchor="end">FieldFailure</text><rect x="190" y="460" width="29.5" height="28" rx="4" fill="#3B82F6" opacity="0.9"/><text x="225" y="482" fill="#475569" font-family="monospace" font-size="11">3 (88B)</text><rect x="190" y="494" width="49.1" height="28" rx="4" fill="#F97316" opacity="0.9"/><text x="245" y="516" fill="#475569" font-family="monospace" font-size="11">5 (216B)</text><text x="180" y="564" fill="#334155" font-family="monospace" font-size="12" text-anchor="end">FieldMapDiveFailure</text><rect x="190" y="542" width="98.2" height="28" rx="4" fill="#3B82F6" opacity="0.9"/><text x="294" y="564" fill="#475569" font-family="monospace" font-size="11">10 (316B)</text><rect x="190" y="576" width="147.3" height="28" rx="4" fill="#F97316" opacity="0.9"/><text x="343" y="598" fill="#475569" font-family="monospace" font-size="11">15 (424B)</text><text x="180" y="646" fill="#334155" font-family="monospace" font-size="12" text-anchor="end">FieldMapDiveSuccess</text><rect x="190" y="624" width="68.8" height="28" rx="4" fill="#3B82F6" opacity="0.9"/><text x="264" y="646" fill="#475569" font-family="monospace" font-size="11">7 (176B)</text><rect x="190" y="658" width="167.0" height="28" rx="4" fill="#F97316" opacity="0.9"/><text x="362" y="680" fill="#475569" font-family="monospace" font-size="11">17 (360B)</text><text x="180" y="728" fill="#334155" font-family="monospace" font-size="12" text-anchor="end">FieldMapDiveWithKey...</text><rect x="190" y="706" width="108.0" height="28" rx="4" fill="#3B82F6" opacity="0.9"/><text x="304" y="728" fill="#475569" font-family="monospace" font-size="11">11 (492B)</text><rect x="190" y="740" width="176.8" height="28" rx="4" fill="#F97316" opacity="0.9"/><text x="372" y="762" fill="#475569" font-family="monospace" font-size="11">18 (601B)</text><text x="180" y="810" fill="#334155" font-family="monospace" font-size="12" text-anchor="end">FieldMapDiveWithKey...</text><rect x="190" y="788" width="68.8" height="28" rx="4" fill="#3B82F6" opacity="0.9"/><text x="264" y="810" fill="#475569" font-family="monospace" font-size="11">7 (176B)</text><rect x="190" y="822" width="167.0" height="28" rx="4" fill="#F97316" opacity="0.9"/><text x="362" y="844" fill="#475569" font-family="monospace" font-size="11">17 (360B)</text><text x="180" y="892" fill="#334155" font-family="monospace" font-size="12" text-anchor="end">FieldOrTagFailure</text><rect x="190" y="870" width="29.5" height="28" rx="4" fill="#3B82F6" opacity="0.9"/><text x="225" y="892" fill="#475569" font-family="monospace" font-size="11">3 (88B)</text><rect x="190" y="904" width="39.3" height="28" rx="4" fill="#F97316" opacity="0.9"/><text x="235" y="926" fill="#475569" font-family="monospace" font-size="11">4 (200B)</text><text x="180" y="974" fill="#334155" font-family="monospace" font-size="12" text-anchor="end">FieldOrTagSuccess</text><rect x="190" y="952" width="0.0" height="28" rx="4" fill="#3B82F6" opacity="0.9"/><text x="194" y="974" fill="#475569" font-family="monospace" font-size="11">0</text><rect x="190" y="986" width="0.0" height="28" rx="4" fill="#F97316" opacity="0.9"/><text x="194" y="1008" fill="#475569" font-family="monospace" font-size="11">0</text><text x="180" y="1056" fill="#334155" font-family="monospace" font-size="12" text-anchor="end">FieldSuccess</text><rect x="190" y="1034" width="0.0" height="28" rx="4" fill="#3B82F6" opacity="0.9"/><text x="194" y="1056" fill="#475569" font-family="monospace" font-size="11">0</text><rect x="190" y="1068" width="9.8" height="28" rx="4" fill="#F97316" opacity="0.9"/><text x="205" y="1090" fill="#475569" font-family="monospace" font-size="11">1 (16B)</text><text x="180" y="1138" fill="#334155" font-family="monospace" font-size="12" text-anchor="end">NestedWorkspace_Inv...</text><rect x="190" y="1116" width="68.8" height="28" rx="4" fill="#3B82F6" opacity="0.9"/><text x="264" y="1138" fill="#475569" font-family="monospace" font-size="11">7 (824B)</text><rect x="190" y="1150" width="481.2" height="28" rx="4" fill="#F97316" opacity="0.9"/><text x="595" y="1172" fill="#FFF" font-family="monospace" font-size="11">49 (2793B)</text><text x="180" y="1220" fill="#334155" font-family="monospace" font-size="12" text-anchor="end">NestedWorkspace_Valid</text><rect x="190" y="1198" width="9.8" height="28" rx="4" fill="#3B82F6" opacity="0.9"/><text x="205" y="1220" fill="#475569" font-family="monospace" font-size="11">1 (96B)</text><rect x="190" y="1232" width="324.1" height="28" rx="4" fill="#F97316" opacity="0.9"/><text x="520" y="1254" fill="#475569" font-family="monospace" font-size="11">33 (978B)</text><text x="180" y="1302" fill="#334155" font-family="monospace" font-size="12" text-anchor="end">Oneof</text><rect x="190" y="1280" width="0.0" height="28" rx="4" fill="#3B82F6" opacity="0.9"/><text x="194" y="1302" fill="#475569" font-family="monospace" font-size="11">0</text><rect x="190" y="1314" width="9.8" height="28" rx="4" fill="#F97316" opacity="0.9"/><text x="205" y="1336" fill="#475569" font-family="monospace" font-size="11">1 (16B)</text><text x="180" y="1384" fill="#334155" font-family="monospace" font-size="12" text-anchor="end">RequiredIf</text><rect x="190" y="1362" width="0.0" height="28" rx="4" fill="#3B82F6" opacity="0.9"/><text x="194" y="1384" fill="#475569" font-family="monospace" font-size="11">0</text><rect x="190" y="1396" width="0.0" height="28" rx="4" fill="#F97316" opacity="0.9"/><text x="194" y="1418" fill="#475569" font-family="monospace" font-size="11">0</text><text x="180" y="1466" fill="#334155" font-family="monospace" font-size="12" text-anchor="end">SimpleUser_Invalid</text><rect x="190" y="1444" width="49.1" height="28" rx="4" fill="#3B82F6" opacity="0.9"/><text x="245" y="1466" fill="#475569" font-family="monospace" font-size="11">5 (552B)</text><rect x="190" y="1478" width="176.8" height="28" rx="4" fill="#F97316" opacity="0.9"/><text x="372" y="1500" fill="#475569" font-family="monospace" font-size="11">18 (744B)</text><text x="180" y="1548" fill="#334155" font-family="monospace" font-size="12" text-anchor="end">SimpleUser_Valid</text><rect x="190" y="1526" width="0.0" height="28" rx="4" fill="#3B82F6" opacity="0.9"/><text x="194" y="1548" fill="#475569" font-family="monospace" font-size="11">0</text><rect x="190" y="1560" width="49.1" height="28" rx="4" fill="#F97316" opacity="0.9"/><text x="245" y="1582" fill="#475569" font-family="monospace" font-size="11">5 (96B)</text><text x="180" y="1630" fill="#334155" font-family="monospace" font-size="12" text-anchor="end">StructComplexFailure</text><rect x="190" y="1608" width="255.4" height="28" rx="4" fill="#3B82F6" opacity="0.9"/><text x="451" y="1630" fill="#475569" font-family="monospace" font-size="11">26 (2328B)</text><rect x="190" y="1642" width="550.0" height="28" rx="4" fill="#F97316" opacity="0.9"/><text x="664" y="1664" fill="#FFF" font-family="monospace" font-size="11">56 (2968B)</text><text x="180" y="1712" fill="#334155" font-family="monospace" font-size="12" text-anchor="end">StructComplexSuccess</text><rect x="190" y="1690" width="0.0" height="28" rx="4" fill="#3B82F6" opacity="0.9"/><text x="194" y="1712" fill="#475569" font-family="monospace" font-size="11">0</text><rect x="190" y="1724" width="137.5" height="28" rx="4" fill="#F97316" opacity="0.9"/><text x="333" y="1746" fill="#475569" font-family="monospace" font-size="11">14 (224B)</text><text x="180" y="1794" fill="#334155" font-family="monospace" font-size="12" text-anchor="end">StructSimpleCrossFi...</text><rect x="190" y="1772" width="58.9" height="28" rx="4" fill="#3B82F6" opacity="0.9"/><text x="254" y="1794" fill="#475569" font-family="monospace" font-size="11">6 (272B)</text><rect x="190" y="1806" width="108.0" height="28" rx="4" fill="#F97316" opacity="0.9"/><text x="304" y="1828" fill="#475569" font-family="monospace" font-size="11">11 (384B)</text><text x="180" y="1876" fill="#334155" font-family="monospace" font-size="12" text-anchor="end">StructSimpleCrossFi...</text><rect x="190" y="1854" width="19.6" height="28" rx="4" fill="#3B82F6" opacity="0.9"/><text x="215" y="1876" fill="#475569" font-family="monospace" font-size="11">2 (48B)</text><rect x="190" y="1888" width="58.9" height="28" rx="4" fill="#F97316" opacity="0.9"/><text x="254" y="1910" fill="#475569" font-family="monospace" font-size="11">6 (168B)</text><text x="180" y="1958" fill="#334155" font-family="monospace" font-size="12" text-anchor="end">StructSimpleCrossSt...</text><rect x="190" y="1936" width="68.8" height="28" rx="4" fill="#3B82F6" opacity="0.9"/><text x="264" y="1958" fill="#475569" font-family="monospace" font-size="11">7 (304B)</text><rect x="190" y="1970" width="127.7" height="28" rx="4" fill="#F97316" opacity="0.9"/><text x="323" y="1992" fill="#475569" font-family="monospace" font-size="11">13 (440B)</text><text x="180" y="2040" fill="#334155" font-family="monospace" font-size="12" text-anchor="end">StructSimpleCrossSt...</text><rect x="190" y="2018" width="29.5" height="28" rx="4" fill="#3B82F6" opacity="0.9"/><text x="225" y="2040" fill="#475569" font-family="monospace" font-size="11">3 (80B)</text><rect x="190" y="2052" width="78.6" height="28" rx="4" fill="#F97316" opacity="0.9"/><text x="274" y="2074" fill="#475569" font-family="monospace" font-size="11">8 (200B)</text><text x="180" y="2122" fill="#334155" font-family="monospace" font-size="12" text-anchor="end">StructSimpleFailure</text><rect x="190" y="2100" width="58.9" height="28" rx="4" fill="#3B82F6" opacity="0.9"/><text x="254" y="2122" fill="#475569" font-family="monospace" font-size="11">6 (400B)</text><rect x="190" y="2134" width="108.0" height="28" rx="4" fill="#F97316" opacity="0.9"/><text x="304" y="2156" fill="#475569" font-family="monospace" font-size="11">11 (440B)</text><text x="180" y="2204" fill="#334155" font-family="monospace" font-size="12" text-anchor="end">StructSimpleSuccess</text><rect x="190" y="2182" width="0.0" height="28" rx="4" fill="#3B82F6" opacity="0.9"/><text x="194" y="2204" fill="#475569" font-family="monospace" font-size="11">0</text><rect x="190" y="2216" width="19.6" height="28" rx="4" fill="#F97316" opacity="0.9"/><text x="215" y="2238" fill="#475569" font-family="monospace" font-size="11">2 (24B)</text><text x="180" y="2286" fill="#334155" font-family="monospace" font-size="12" text-anchor="end">VarPath</text><rect x="190" y="2264" width="0.0" height="28" rx="4" fill="#3B82F6" opacity="0.9"/><text x="194" y="2286" fill="#475569" font-family="monospace" font-size="11">0</text><rect x="190" y="2298" width="0.0" height="28" rx="4" fill="#F97316" opacity="0.9"/><text x="194" y="2320" fill="#475569" font-family="monospace" font-size="11">0</text><text x="180" y="2368" fill="#334155" font-family="monospace" font-size="12" text-anchor="end">Var_ASCII</text><rect x="190" y="2346" width="9.8" height="28" rx="4" fill="#3B82F6" opacity="0.9"/><text x="205" y="2368" fill="#475569" font-family="monospace" font-size="11">1 (16B)</text><rect x="190" y="2380" width="9.8" height="28" rx="4" fill="#F97316" opacity="0.9"/><text x="205" y="2402" fill="#475569" font-family="monospace" font-size="11">1 (16B)</text><text x="180" y="2450" fill="#334155" font-family="monospace" font-size="12" text-anchor="end">Var_Alpha</text><rect x="190" y="2428" width="9.8" height="28" rx="4" fill="#3B82F6" opacity="0.9"/><text x="205" y="2450" fill="#475569" font-family="monospace" font-size="11">1 (16B)</text><rect x="190" y="2462" width="9.8" height="28" rx="4" fill="#F97316" opacity="0.9"/><text x="205" y="2484" fill="#475569" font-family="monospace" font-size="11">1 (16B)</text><text x="180" y="2532" fill="#334155" font-family="monospace" font-size="12" text-anchor="end">Var_Alphanum</text><rect x="190" y="2510" width="9.8" height="28" rx="4" fill="#3B82F6" opacity="0.9"/><text x="205" y="2532" fill="#475569" font-family="monospace" font-size="11">1 (16B)</text><rect x="190" y="2544" width="9.8" height="28" rx="4" fill="#F97316" opacity="0.9"/><text x="205" y="2566" fill="#475569" font-family="monospace" font-size="11">1 (16B)</text><text x="180" y="2614" fill="#334155" font-family="monospace" font-size="12" text-anchor="end">Var_Base64</text><rect x="190" y="2592" width="9.8" height="28" rx="4" fill="#3B82F6" opacity="0.9"/><text x="205" y="2614" fill="#475569" font-family="monospace" font-size="11">1 (16B)</text><rect x="190" y="2626" width="9.8" height="28" rx="4" fill="#F97316" opacity="0.9"/><text x="205" y="2648" fill="#475569" font-family="monospace" font-size="11">1 (16B)</text><text x="180" y="2696" fill="#334155" font-family="monospace" font-size="12" text-anchor="end">Var_Base64URL</text><rect x="190" y="2674" width="9.8" height="28" rx="4" fill="#3B82F6" opacity="0.9"/><text x="205" y="2696" fill="#475569" font-family="monospace" font-size="11">1 (16B)</text><rect x="190" y="2708" width="9.8" height="28" rx="4" fill="#F97316" opacity="0.9"/><text x="205" y="2730" fill="#475569" font-family="monospace" font-size="11">1 (16B)</text><text x="180" y="2778" fill="#334155" font-family="monospace" font-size="12" text-anchor="end">Var_Boolean</text><rect x="190" y="2756" width="9.8" height="28" rx="4" fill="#3B82F6" opacity="0.9"/><text x="205" y="2778" fill="#475569" font-family="monospace" font-size="11">1 (16B)</text><rect x="190" y="2790" width="9.8" height="28" rx="4" fill="#F97316" opacity="0.9"/><text x="205" y="2812" fill="#475569" font-family="monospace" font-size="11">1 (16B)</text><text x="180" y="2860" fill="#334155" font-family="monospace" font-size="12" text-anchor="end">Var_CIDR</text><rect x="190" y="2838" width="9.8" height="28" rx="4" fill="#3B82F6" opacity="0.9"/><text x="205" y="2860" fill="#475569" font-family="monospace" font-size="11">1 (16B)</text><rect x="190" y="2872" width="49.1" height="28" rx="4" fill="#F97316" opacity="0.9"/><text x="245" y="2894" fill="#475569" font-family="monospace" font-size="11">5 (88B)</text><text x="180" y="2942" fill="#334155" font-family="monospace" font-size="12" text-anchor="end">Var_Contains</text><rect x="190" y="2920" width="9.8" height="28" rx="4" fill="#3B82F6" opacity="0.9"/><text x="205" y="2942" fill="#475569" font-family="monospace" font-size="11">1 (16B)</text><rect x="190" y="2954" width="9.8" height="28" rx="4" fill="#F97316" opacity="0.9"/><text x="205" y="2976" fill="#475569" font-family="monospace" font-size="11">1 (16B)</text><text x="180" y="3024" fill="#334155" font-family="monospace" font-size="12" text-anchor="end">Var_Datetime</text><rect x="190" y="3002" width="9.8" height="28" rx="4" fill="#3B82F6" opacity="0.9"/><text x="205" y="3024" fill="#475569" font-family="monospace" font-size="11">1 (16B)</text><rect x="190" y="3036" width="88.4" height="28" rx="4" fill="#F97316" opacity="0.9"/><text x="284" y="3058" fill="#475569" font-family="monospace" font-size="11">9 (400B)</text><text x="180" y="3106" fill="#334155" font-family="monospace" font-size="12" text-anchor="end">Var_E164</text><rect x="190" y="3084" width="9.8" height="28" rx="4" fill="#3B82F6" opacity="0.9"/><text x="205" y="3106" fill="#475569" font-family="monospace" font-size="11">1 (16B)</text><rect x="190" y="3118" width="9.8" height="28" rx="4" fill="#F97316" opacity="0.9"/><text x="205" y="3140" fill="#475569" font-family="monospace" font-size="11">1 (16B)</text><text x="180" y="3188" fill="#334155" font-family="monospace" font-size="12" text-anchor="end">Var_Email</text><rect x="190" y="3166" width="9.8" height="28" rx="4" fill="#3B82F6" opacity="0.9"/><text x="205" y="3188" fill="#475569" font-family="monospace" font-size="11">1 (16B)</text><rect x="190" y="3200" width="58.9" height="28" rx="4" fill="#F97316" opacity="0.9"/><text x="254" y="3222" fill="#475569" font-family="monospace" font-size="11">6 (104B)</text><text x="180" y="3270" fill="#334155" font-family="monospace" font-size="12" text-anchor="end">Var_EndsWith</text><rect x="190" y="3248" width="9.8" height="28" rx="4" fill="#3B82F6" opacity="0.9"/><text x="205" y="3270" fill="#475569" font-family="monospace" font-size="11">1 (16B)</text><rect x="190" y="3282" width="9.8" height="28" rx="4" fill="#F97316" opacity="0.9"/><text x="205" y="3304" fill="#475569" font-family="monospace" font-size="11">1 (16B)</text><text x="180" y="3352" fill="#334155" font-family="monospace" font-size="12" text-anchor="end">Var_Eq</text><rect x="190" y="3330" width="9.8" height="28" rx="4" fill="#3B82F6" opacity="0.9"/><text x="205" y="3352" fill="#475569" font-family="monospace" font-size="11">1 (16B)</text><rect x="190" y="3364" width="9.8" height="28" rx="4" fill="#F97316" opacity="0.9"/><text x="205" y="3386" fill="#475569" font-family="monospace" font-size="11">1 (16B)</text><text x="180" y="3434" fill="#334155" font-family="monospace" font-size="12" text-anchor="end">Var_FQDN</text><rect x="190" y="3412" width="9.8" height="28" rx="4" fill="#3B82F6" opacity="0.9"/><text x="205" y="3434" fill="#475569" font-family="monospace" font-size="11">1 (16B)</text><rect x="190" y="3446" width="9.8" height="28" rx="4" fill="#F97316" opacity="0.9"/><text x="205" y="3468" fill="#475569" font-family="monospace" font-size="11">1 (16B)</text><text x="180" y="3516" fill="#334155" font-family="monospace" font-size="12" text-anchor="end">Var_Gt</text><rect x="190" y="3494" width="39.3" height="28" rx="4" fill="#3B82F6" opacity="0.9"/><text x="235" y="3516" fill="#475569" font-family="monospace" font-size="11">4 (104B)</text><rect x="190" y="3528" width="39.3" height="28" rx="4" fill="#F97316" opacity="0.9"/><text x="235" y="3550" fill="#475569" font-family="monospace" font-size="11">4 (200B)</text><text x="180" y="3598" fill="#334155" font-family="monospace" font-size="12" text-anchor="end">Var_Gte</text><rect x="190" y="3576" width="39.3" height="28" rx="4" fill="#3B82F6" opacity="0.9"/><text x="235" y="3598" fill="#475569" font-family="monospace" font-size="11">4 (104B)</text><rect x="190" y="3610" width="39.3" height="28" rx="4" fill="#F97316" opacity="0.9"/><text x="235" y="3632" fill="#475569" font-family="monospace" font-size="11">4 (200B)</text><text x="180" y="3680" fill="#334155" font-family="monospace" font-size="12" text-anchor="end">Var_HSL</text><rect x="190" y="3658" width="9.8" height="28" rx="4" fill="#3B82F6" opacity="0.9"/><text x="205" y="3680" fill="#475569" font-family="monospace" font-size="11">1 (16B)</text><rect x="190" y="3692" width="9.8" height="28" rx="4" fill="#F97316" opacity="0.9"/><text x="205" y="3714" fill="#475569" font-family="monospace" font-size="11">1 (16B)</text><text x="180" y="3762" fill="#334155" font-family="monospace" font-size="12" text-anchor="end">Var_HSLA</text><rect x="190" y="3740" width="9.8" height="28" rx="4" fill="#3B82F6" opacity="0.9"/><text x="205" y="3762" fill="#475569" font-family="monospace" font-size="11">1 (16B)</text><rect x="190" y="3774" width="9.8" height="28" rx="4" fill="#F97316" opacity="0.9"/><text x="205" y="3796" fill="#475569" font-family="monospace" font-size="11">1 (16B)</text><text x="180" y="3844" fill="#334155" font-family="monospace" font-size="12" text-anchor="end">Var_HTML</text><rect x="190" y="3822" width="9.8" height="28" rx="4" fill="#3B82F6" opacity="0.9"/><text x="205" y="3844" fill="#475569" font-family="monospace" font-size="11">1 (16B)</text><rect x="190" y="3856" width="9.8" height="28" rx="4" fill="#F97316" opacity="0.9"/><text x="205" y="3878" fill="#475569" font-family="monospace" font-size="11">1 (16B)</text><text x="180" y="3926" fill="#334155" font-family="monospace" font-size="12" text-anchor="end">Var_HTMLEncoded</text><rect x="190" y="3904" width="9.8" height="28" rx="4" fill="#3B82F6" opacity="0.9"/><text x="205" y="3926" fill="#475569" font-family="monospace" font-size="11">1 (16B)</text><rect x="190" y="3938" width="9.8" height="28" rx="4" fill="#F97316" opacity="0.9"/><text x="205" y="3960" fill="#475569" font-family="monospace" font-size="11">1 (16B)</text><text x="180" y="4008" fill="#334155" font-family="monospace" font-size="12" text-anchor="end">Var_HexColor</text><rect x="190" y="3986" width="9.8" height="28" rx="4" fill="#3B82F6" opacity="0.9"/><text x="205" y="4008" fill="#475569" font-family="monospace" font-size="11">1 (16B)</text><rect x="190" y="4020" width="9.8" height="28" rx="4" fill="#F97316" opacity="0.9"/><text x="205" y="4042" fill="#475569" font-family="monospace" font-size="11">1 (16B)</text><text x="180" y="4090" fill="#334155" font-family="monospace" font-size="12" text-anchor="end">Var_Hexadecimal</text><rect x="190" y="4068" width="9.8" height="28" rx="4" fill="#3B82F6" opacity="0.9"/><text x="205" y="4090" fill="#475569" font-family="monospace" font-size="11">1 (16B)</text><rect x="190" y="4102" width="9.8" height="28" rx="4" fill="#F97316" opacity="0.9"/><text x="205" y="4124" fill="#475569" font-family="monospace" font-size="11">1 (16B)</text><text x="180" y="4172" fill="#334155" font-family="monospace" font-size="12" text-anchor="end">Var_Hostname</text><rect x="190" y="4150" width="9.8" height="28" rx="4" fill="#3B82F6" opacity="0.9"/><text x="205" y="4172" fill="#475569" font-family="monospace" font-size="11">1 (16B)</text><rect x="190" y="4184" width="9.8" height="28" rx="4" fill="#F97316" opacity="0.9"/><text x="205" y="4206" fill="#475569" font-family="monospace" font-size="11">1 (16B)</text><text x="180" y="4254" fill="#334155" font-family="monospace" font-size="12" text-anchor="end">Var_HostnamePort</text><rect x="190" y="4232" width="9.8" height="28" rx="4" fill="#3B82F6" opacity="0.9"/><text x="205" y="4254" fill="#475569" font-family="monospace" font-size="11">1 (16B)</text><rect x="190" y="4266" width="9.8" height="28" rx="4" fill="#F97316" opacity="0.9"/><text x="205" y="4288" fill="#475569" font-family="monospace" font-size="11">1 (16B)</text><text x="180" y="4336" fill="#334155" font-family="monospace" font-size="12" text-anchor="end">Var_IP</text><rect x="190" y="4314" width="9.8" height="28" rx="4" fill="#3B82F6" opacity="0.9"/><text x="205" y="4336" fill="#475569" font-family="monospace" font-size="11">1 (16B)</text><rect x="190" y="4348" width="9.8" height="28" rx="4" fill="#F97316" opacity="0.9"/><text x="205" y="4370" fill="#475569" font-family="monospace" font-size="11">1 (16B)</text><text x="180" y="4418" fill="#334155" font-family="monospace" font-size="12" text-anchor="end">Var_IPv4</text><rect x="190" y="4396" width="9.8" height="28" rx="4" fill="#3B82F6" opacity="0.9"/><text x="205" y="4418" fill="#475569" font-family="monospace" font-size="11">1 (16B)</text><rect x="190" y="4430" width="9.8" height="28" rx="4" fill="#F97316" opacity="0.9"/><text x="205" y="4452" fill="#475569" font-family="monospace" font-size="11">1 (16B)</text><text x="180" y="4500" fill="#334155" font-family="monospace" font-size="12" text-anchor="end">Var_IPv6</text><rect x="190" y="4478" width="9.8" height="28" rx="4" fill="#3B82F6" opacity="0.9"/><text x="205" y="4500" fill="#475569" font-family="monospace" font-size="11">1 (16B)</text><rect x="190" y="4512" width="9.8" height="28" rx="4" fill="#F97316" opacity="0.9"/><text x="205" y="4534" fill="#475569" font-family="monospace" font-size="11">1 (16B)</text><text x="180" y="4582" fill="#334155" font-family="monospace" font-size="12" text-anchor="end">Var_JSON</text><rect x="190" y="4560" width="9.8" height="28" rx="4" fill="#3B82F6" opacity="0.9"/><text x="205" y="4582" fill="#475569" font-family="monospace" font-size="11">1 (16B)</text><rect x="190" y="4594" width="9.8" height="28" rx="4" fill="#F97316" opacity="0.9"/><text x="205" y="4616" fill="#475569" font-family="monospace" font-size="11">1 (16B)</text><text x="180" y="4664" fill="#334155" font-family="monospace" font-size="12" text-anchor="end">Var_Latitude</text><rect x="190" y="4642" width="9.8" height="28" rx="4" fill="#3B82F6" opacity="0.9"/><text x="205" y="4664" fill="#475569" font-family="monospace" font-size="11">1 (16B)</text><rect x="190" y="4676" width="9.8" height="28" rx="4" fill="#F97316" opacity="0.9"/><text x="205" y="4698" fill="#475569" font-family="monospace" font-size="11">1 (16B)</text><text x="180" y="4746" fill="#334155" font-family="monospace" font-size="12" text-anchor="end">Var_Len</text><rect x="190" y="4724" width="9.8" height="28" rx="4" fill="#3B82F6" opacity="0.9"/><text x="205" y="4746" fill="#475569" font-family="monospace" font-size="11">1 (16B)</text><rect x="190" y="4758" width="9.8" height="28" rx="4" fill="#F97316" opacity="0.9"/><text x="205" y="4780" fill="#475569" font-family="monospace" font-size="11">1 (16B)</text><text x="180" y="4828" fill="#334155" font-family="monospace" font-size="12" text-anchor="end">Var_Longitude</text><rect x="190" y="4806" width="9.8" height="28" rx="4" fill="#3B82F6" opacity="0.9"/><text x="205" y="4828" fill="#475569" font-family="monospace" font-size="11">1 (16B)</text><rect x="190" y="4840" width="9.8" height="28" rx="4" fill="#F97316" opacity="0.9"/><text x="205" y="4862" fill="#475569" font-family="monospace" font-size="11">1 (16B)</text><text x="180" y="4910" fill="#334155" font-family="monospace" font-size="12" text-anchor="end">Var_Lowercase</text><rect x="190" y="4888" width="9.8" height="28" rx="4" fill="#3B82F6" opacity="0.9"/><text x="205" y="4910" fill="#475569" font-family="monospace" font-size="11">1 (16B)</text><rect x="190" y="4922" width="9.8" height="28" rx="4" fill="#F97316" opacity="0.9"/><text x="205" y="4944" fill="#475569" font-family="monospace" font-size="11">1 (16B)</text><text x="180" y="4992" fill="#334155" font-family="monospace" font-size="12" text-anchor="end">Var_Lt</text><rect x="190" y="4970" width="9.8" height="28" rx="4" fill="#3B82F6" opacity="0.9"/><text x="205" y="4992" fill="#475569" font-family="monospace" font-size="11">1 (16B)</text><rect x="190" y="5004" width="9.8" height="28" rx="4" fill="#F97316" opacity="0.9"/><text x="205" y="5026" fill="#475569" font-family="monospace" font-size="11">1 (16B)</text><text x="180" y="5074" fill="#334155" font-family="monospace" font-size="12" text-anchor="end">Var_Lte</text><rect x="190" y="5052" width="9.8" height="28" rx="4" fill="#3B82F6" opacity="0.9"/><text x="205" y="5074" fill="#475569" font-family="monospace" font-size="11">1 (16B)</text><rect x="190" y="5086" width="9.8" height="28" rx="4" fill="#F97316" opacity="0.9"/><text x="205" y="5108" fill="#475569" font-family="monospace" font-size="11">1 (16B)</text><text x="180" y="5156" fill="#334155" font-family="monospace" font-size="12" text-anchor="end">Var_MAC</text><rect x="190" y="5134" width="9.8" height="28" rx="4" fill="#3B82F6" opacity="0.9"/><text x="205" y="5156" fill="#475569" font-family="monospace" font-size="11">1 (16B)</text><rect x="190" y="5168" width="19.6" height="28" rx="4" fill="#F97316" opacity="0.9"/><text x="215" y="5190" fill="#475569" font-family="monospace" font-size="11">2 (24B)</text><text x="180" y="5238" fill="#334155" font-family="monospace" font-size="12" text-anchor="end">Var_Max</text><rect x="190" y="5216" width="9.8" height="28" rx="4" fill="#3B82F6" opacity="0.9"/><text x="205" y="5238" fill="#475569" font-family="monospace" font-size="11">1 (16B)</text><rect x="190" y="5250" width="9.8" height="28" rx="4" fill="#F97316" opacity="0.9"/><text x="205" y="5272" fill="#475569" font-family="monospace" font-size="11">1 (16B)</text><text x="180" y="5320" fill="#334155" font-family="monospace" font-size="12" text-anchor="end">Var_Min</text><rect x="190" y="5298" width="9.8" height="28" rx="4" fill="#3B82F6" opacity="0.9"/><text x="205" y="5320" fill="#475569" font-family="monospace" font-size="11">1 (16B)</text><rect x="190" y="5332" width="9.8" height="28" rx="4" fill="#F97316" opacity="0.9"/><text x="205" y="5354" fill="#475569" font-family="monospace" font-size="11">1 (16B)</text><text x="180" y="5402" fill="#334155" font-family="monospace" font-size="12" text-anchor="end">Var_MultiRule</text><rect x="190" y="5380" width="9.8" height="28" rx="4" fill="#3B82F6" opacity="0.9"/><text x="205" y="5402" fill="#475569" font-family="monospace" font-size="11">1 (16B)</text><rect x="190" y="5414" width="9.8" height="28" rx="4" fill="#F97316" opacity="0.9"/><text x="205" y="5436" fill="#475569" font-family="monospace" font-size="11">1 (16B)</text><text x="180" y="5484" fill="#334155" font-family="monospace" font-size="12" text-anchor="end">Var_Multibyte</text><rect x="190" y="5462" width="9.8" height="28" rx="4" fill="#3B82F6" opacity="0.9"/><text x="205" y="5484" fill="#475569" font-family="monospace" font-size="11">1 (16B)</text><rect x="190" y="5496" width="9.8" height="28" rx="4" fill="#F97316" opacity="0.9"/><text x="205" y="5518" fill="#475569" font-family="monospace" font-size="11">1 (16B)</text><text x="180" y="5566" fill="#334155" font-family="monospace" font-size="12" text-anchor="end">Var_Ne</text><rect x="190" y="5544" width="9.8" height="28" rx="4" fill="#3B82F6" opacity="0.9"/><text x="205" y="5566" fill="#475569" font-family="monospace" font-size="11">1 (16B)</text><rect x="190" y="5578" width="9.8" height="28" rx="4" fill="#F97316" opacity="0.9"/><text x="205" y="5600" fill="#475569" font-family="monospace" font-size="11">1 (16B)</text><text x="180" y="5648" fill="#334155" font-family="monospace" font-size="12" text-anchor="end">Var_Number</text><rect x="190" y="5626" width="9.8" height="28" rx="4" fill="#3B82F6" opacity="0.9"/><text x="205" y="5648" fill="#475569" font-family="monospace" font-size="11">1 (16B)</text><rect x="190" y="5660" width="9.8" height="28" rx="4" fill="#F97316" opacity="0.9"/><text x="205" y="5682" fill="#475569" font-family="monospace" font-size="11">1 (16B)</text><text x="180" y="5730" fill="#334155" font-family="monospace" font-size="12" text-anchor="end">Var_Oneof</text><rect x="190" y="5708" width="9.8" height="28" rx="4" fill="#3B82F6" opacity="0.9"/><text x="205" y="5730" fill="#475569" font-family="monospace" font-size="11">1 (16B)</text><rect x="190" y="5742" width="9.8" height="28" rx="4" fill="#F97316" opacity="0.9"/><text x="205" y="5764" fill="#475569" font-family="monospace" font-size="11">1 (16B)</text><text x="180" y="5812" fill="#334155" font-family="monospace" font-size="12" text-anchor="end">Var_Oneofci</text><rect x="190" y="5790" width="9.8" height="28" rx="4" fill="#3B82F6" opacity="0.9"/><text x="205" y="5812" fill="#475569" font-family="monospace" font-size="11">1 (16B)</text><rect x="190" y="5824" width="9.8" height="28" rx="4" fill="#F97316" opacity="0.9"/><text x="205" y="5846" fill="#475569" font-family="monospace" font-size="11">1 (16B)</text><text x="180" y="5894" fill="#334155" font-family="monospace" font-size="12" text-anchor="end">Var_RGB</text><rect x="190" y="5872" width="9.8" height="28" rx="4" fill="#3B82F6" opacity="0.9"/><text x="205" y="5894" fill="#475569" font-family="monospace" font-size="11">1 (16B)</text><rect x="190" y="5906" width="9.8" height="28" rx="4" fill="#F97316" opacity="0.9"/><text x="205" y="5928" fill="#475569" font-family="monospace" font-size="11">1 (16B)</text><text x="180" y="5976" fill="#334155" font-family="monospace" font-size="12" text-anchor="end">Var_RGBA</text><rect x="190" y="5954" width="9.8" height="28" rx="4" fill="#3B82F6" opacity="0.9"/><text x="205" y="5976" fill="#475569" font-family="monospace" font-size="11">1 (16B)</text><rect x="190" y="5988" width="9.8" height="28" rx="4" fill="#F97316" opacity="0.9"/><text x="205" y="6010" fill="#475569" font-family="monospace" font-size="11">1 (16B)</text><text x="180" y="6058" fill="#334155" font-family="monospace" font-size="12" text-anchor="end">Var_Required</text><rect x="190" y="6036" width="9.8" height="28" rx="4" fill="#3B82F6" opacity="0.9"/><text x="205" y="6058" fill="#475569" font-family="monospace" font-size="11">1 (16B)</text><rect x="190" y="6070" width="9.8" height="28" rx="4" fill="#F97316" opacity="0.9"/><text x="205" y="6092" fill="#475569" font-family="monospace" font-size="11">1 (16B)</text><text x="180" y="6140" fill="#334155" font-family="monospace" font-size="12" text-anchor="end">Var_StartsWith</text><rect x="190" y="6118" width="9.8" height="28" rx="4" fill="#3B82F6" opacity="0.9"/><text x="205" y="6140" fill="#475569" font-family="monospace" font-size="11">1 (16B)</text><rect x="190" y="6152" width="9.8" height="28" rx="4" fill="#F97316" opacity="0.9"/><text x="205" y="6174" fill="#475569" font-family="monospace" font-size="11">1 (16B)</text><text x="180" y="6222" fill="#334155" font-family="monospace" font-size="12" text-anchor="end">Var_URI</text><rect x="190" y="6200" width="9.8" height="28" rx="4" fill="#3B82F6" opacity="0.9"/><text x="205" y="6222" fill="#475569" font-family="monospace" font-size="11">1 (16B)</text><rect x="190" y="6234" width="19.6" height="28" rx="4" fill="#F97316" opacity="0.9"/><text x="215" y="6256" fill="#475569" font-family="monospace" font-size="11">2 (160B)</text><text x="180" y="6304" fill="#334155" font-family="monospace" font-size="12" text-anchor="end">Var_URL</text><rect x="190" y="6282" width="9.8" height="28" rx="4" fill="#3B82F6" opacity="0.9"/><text x="205" y="6304" fill="#475569" font-family="monospace" font-size="11">1 (16B)</text><rect x="190" y="6316" width="19.6" height="28" rx="4" fill="#F97316" opacity="0.9"/><text x="215" y="6338" fill="#475569" font-family="monospace" font-size="11">2 (160B)</text><text x="180" y="6386" fill="#334155" font-family="monospace" font-size="12" text-anchor="end">Var_URLEncoded</text><rect x="190" y="6364" width="9.8" height="28" rx="4" fill="#3B82F6" opacity="0.9"/><text x="205" y="6386" fill="#475569" font-family="monospace" font-size="11">1 (16B)</text><rect x="190" y="6398" width="9.8" height="28" rx="4" fill="#F97316" opacity="0.9"/><text x="205" y="6420" fill="#475569" font-family="monospace" font-size="11">1 (16B)</text><text x="180" y="6468" fill="#334155" font-family="monospace" font-size="12" text-anchor="end">Var_UUID</text><rect x="190" y="6446" width="9.8" height="28" rx="4" fill="#3B82F6" opacity="0.9"/><text x="205" y="6468" fill="#475569" font-family="monospace" font-size="11">1 (16B)</text><rect x="190" y="6480" width="9.8" height="28" rx="4" fill="#F97316" opacity="0.9"/><text x="205" y="6502" fill="#475569" font-family="monospace" font-size="11">1 (16B)</text><text x="180" y="6550" fill="#334155" font-family="monospace" font-size="12" text-anchor="end">Var_UUID3</text><rect x="190" y="6528" width="39.3" height="28" rx="4" fill="#3B82F6" opacity="0.9"/><text x="235" y="6550" fill="#475569" font-family="monospace" font-size="11">4 (104B)</text><rect x="190" y="6562" width="39.3" height="28" rx="4" fill="#F97316" opacity="0.9"/><text x="235" y="6584" fill="#475569" font-family="monospace" font-size="11">4 (200B)</text><text x="180" y="6632" fill="#334155" font-family="monospace" font-size="12" text-anchor="end">Var_UUID4</text><rect x="190" y="6610" width="9.8" height="28" rx="4" fill="#3B82F6" opacity="0.9"/><text x="205" y="6632" fill="#475569" font-family="monospace" font-size="11">1 (16B)</text><rect x="190" y="6644" width="9.8" height="28" rx="4" fill="#F97316" opacity="0.9"/><text x="205" y="6666" fill="#475569" font-family="monospace" font-size="11">1 (16B)</text><text x="180" y="6714" fill="#334155" font-family="monospace" font-size="12" text-anchor="end">Var_UUID5</text><rect x="190" y="6692" width="9.8" height="28" rx="4" fill="#3B82F6" opacity="0.9"/><text x="205" y="6714" fill="#475569" font-family="monospace" font-size="11">1 (16B)</text><rect x="190" y="6726" width="9.8" height="28" rx="4" fill="#F97316" opacity="0.9"/><text x="205" y="6748" fill="#475569" font-family="monospace" font-size="11">1 (16B)</text><text x="180" y="6796" fill="#334155" font-family="monospace" font-size="12" text-anchor="end">Var_Uppercase</text><rect x="190" y="6774" width="9.8" height="28" rx="4" fill="#3B82F6" opacity="0.9"/><text x="205" y="6796" fill="#475569" font-family="monospace" font-size="11">1 (16B)</text><rect x="190" y="6808" width="9.8" height="28" rx="4" fill="#F97316" opacity="0.9"/><text x="205" y="6830" fill="#475569" font-family="monospace" font-size="11">1 (16B)</text><text x="190" y="6916" fill="#94A3B8" font-family="system-ui,sans-serif" font-size="10">Lower is better ▸</text></svg>