<svg xmlns="http://www.w3.org/2000/svg" width="800" height="1760" viewBox="0 0 800 1760"><rect width="100%" height="100%" fill="#FFFFFF" rx="12"/><text x="190" y="30" fill="#1E293B" font-family="system-ui,-apple-system,sans-serif" font-size="16" font-weight="600">Latency Comparison (ns/op) — Parallel</text><rect x="550" y="14" width="14" height="14" rx="3" fill="#3B82F6"/><text x="568" y="26" fill="#64748B" font-family="system-ui,sans-serif" font-size="12">go-argus</text><rect x="680" y="14" width="14" height="14" rx="3" fill="#F97316"/><text x="698" y="26" fill="#64748B" font-family="system-ui,sans-serif" font-size="12">validator/v10</text><text x="180" y="72" fill="#334155" font-family="monospace" font-size="12" text-anchor="end">FieldArrayDiveFailurePara...</text><rect x="190" y="50" width="72.4" height="28" rx="4" fill="#3B82F6" opacity="0.9"/><text x="268" y="72" fill="#475569" font-family="monospace" font-size="11">291 ns</text><rect x="190" y="84" width="85.8" height="28" rx="4" fill="#F97316" opacity="0.9"/><text x="281" y="106" fill="#475569" font-family="monospace" font-size="11">344 ns</text><text x="180" y="154" fill="#334155" font-family="monospace" font-size="12" text-anchor="end">FieldArrayDiveSuccessPara...</text><rect x="190" y="132" width="30.1" height="28" rx="4" fill="#3B82F6" opacity="0.9"/><text x="226" y="154" fill="#475569" font-family="monospace" font-size="11">121 ns</text><rect x="190" y="166" width="54.5" height="28" rx="4" fill="#F97316" opacity="0.9"/><text x="250" y="188" fill="#475569" font-family="monospace" font-size="11">219 ns</text><text x="180" y="236" fill="#334155" font-family="monospace" font-size="12" text-anchor="end">FieldFailureParallel</text><rect x="190" y="214" width="18.9" height="28" rx="4" fill="#3B82F6" opacity="0.9"/><text x="214" y="236" fill="#475569" font-family="monospace" font-size="11">76 ns</text><rect x="190" y="248" width="42.7" height="28" rx="4" fill="#F97316" opacity="0.9"/><text x="238" y="270" fill="#475569" font-family="monospace" font-size="11">171 ns</text><text x="180" y="318" fill="#334155" font-family="monospace" font-size="12" text-anchor="end">FieldMapDiveFailureParallel</text><rect x="190" y="296" width="95.6" height="28" rx="4" fill="#3B82F6" opacity="0.9"/><text x="291" y="318" fill="#475569" font-family="monospace" font-size="11">384 ns</text><rect x="190" y="330" width="124.5" height="28" rx="4" fill="#F97316" opacity="0.9"/><text x="320" y="352" fill="#475569" font-family="monospace" font-size="11">500 ns</text><text x="180" y="400" fill="#334155" font-family="monospace" font-size="12" text-anchor="end">FieldMapDiveSuccessParallel</text><rect x="190" y="378" width="73.9" height="28" rx="4" fill="#3B82F6" opacity="0.9"/><text x="269" y="400" fill="#475569" font-family="monospace" font-size="11">297 ns</text><rect x="190" y="412" width="142.1" height="28" rx="4" fill="#F97316" opacity="0.9"/><text x="338" y="434" fill="#475569" font-family="monospace" font-size="11">570 ns</text><text x="180" y="482" fill="#334155" font-family="monospace" font-size="12" text-anchor="end">FieldMapDiveWithKeysFailu...</text><rect x="190" y="460" width="122.9" height="28" rx="4" fill="#3B82F6" opacity="0.9"/><text x="318" y="482" fill="#475569" font-family="monospace" font-size="11">493 ns</text><rect x="190" y="494" width="160.0" height="28" rx="4" fill="#F97316" opacity="0.9"/><text x="356" y="516" fill="#475569" font-family="monospace" font-size="11">642 ns</text><text x="180" y="564" fill="#334155" font-family="monospace" font-size="12" text-anchor="end">FieldMapDiveWithKeysSucce...</text><rect x="190" y="542" width="85.9" height="28" rx="4" fill="#3B82F6" opacity="0.9"/><text x="281" y="564" fill="#475569" font-family="monospace" font-size="11">345 ns</text><rect x="190" y="576" width="151.7" height="28" rx="4" fill="#F97316" opacity="0.9"/><text x="347" y="598" fill="#475569" font-family="monospace" font-size="11">609 ns</text><text x="180" y="646" fill="#334155" font-family="monospace" font-size="12" text-anchor="end">FieldOrTagFailureParallel</text><rect x="190" y="624" width="24.4" height="28" rx="4" fill="#3B82F6" opacity="0.9"/><text x="220" y="646" fill="#475569" font-family="monospace" font-size="11">98 ns</text><rect x="190" y="658" width="40.5" height="28" rx="4" fill="#F97316" opacity="0.9"/><text x="236" y="680" fill="#475569" font-family="monospace" font-size="11">163 ns</text><text x="180" y="728" fill="#334155" font-family="monospace" font-size="12" text-anchor="end">FieldOrTagSuccessParallel</text><rect x="190" y="706" width="13.9" height="28" rx="4" fill="#3B82F6" opacity="0.9"/><text x="209" y="728" fill="#475569" font-family="monospace" font-size="11">56 ns</text><rect x="190" y="740" width="57.1" height="28" rx="4" fill="#F97316" opacity="0.9"/><text x="253" y="762" fill="#475569" font-family="monospace" font-size="11">229 ns</text><text x="180" y="810" fill="#334155" font-family="monospace" font-size="12" text-anchor="end">FieldSuccessParallel</text><rect x="190" y="788" width="5.0" height="28" rx="4" fill="#3B82F6" opacity="0.9"/><text x="200" y="810" fill="#475569" font-family="monospace" font-size="11">20 ns</text><rect x="190" y="822" width="13.9" height="28" rx="4" fill="#F97316" opacity="0.9"/><text x="209" y="844" fill="#475569" font-family="monospace" font-size="11">56 ns</text><text x="180" y="892" fill="#334155" font-family="monospace" font-size="12" text-anchor="end">OneofParallel</text><rect x="190" y="870" width="17.8" height="28" rx="4" fill="#3B82F6" opacity="0.9"/><text x="213" y="892" fill="#475569" font-family="monospace" font-size="11">72 ns</text><rect x="190" y="904" width="20.8" height="28" rx="4" fill="#F97316" opacity="0.9"/><text x="216" y="926" fill="#475569" font-family="monospace" font-size="11">84 ns</text><text x="180" y="974" fill="#334155" font-family="monospace" font-size="12" text-anchor="end">StructComplexFailureParallel</text><rect x="190" y="952" width="376.3" height="28" rx="4" fill="#3B82F6" opacity="0.9"/><text x="572" y="974" fill="#475569" font-family="monospace" font-size="11">1510 ns</text><rect x="190" y="986" width="550.0" height="28" rx="4" fill="#F97316" opacity="0.9"/><text x="746" y="1008" fill="#475569" font-family="monospace" font-size="11">2208 ns</text><text x="180" y="1056" fill="#334155" font-family="monospace" font-size="12" text-anchor="end">StructComplexSuccessParallel</text><rect x="190" y="1034" width="88.2" height="28" rx="4" fill="#3B82F6" opacity="0.9"/><text x="284" y="1056" fill="#475569" font-family="monospace" font-size="11">354 ns</text><rect x="190" y="1068" width="167.0" height="28" rx="4" fill="#F97316" opacity="0.9"/><text x="363" y="1090" fill="#475569" font-family="monospace" font-size="11">670 ns</text><text x="180" y="1138" fill="#334155" font-family="monospace" font-size="12" text-anchor="end">StructSimpleCrossFieldFai...</text><rect x="190" y="1116" width="61.6" height="28" rx="4" fill="#3B82F6" opacity="0.9"/><text x="257" y="1138" fill="#475569" font-family="monospace" font-size="11">247 ns</text><rect x="190" y="1150" width="101.0" height="28" rx="4" fill="#F97316" opacity="0.9"/><text x="297" y="1172" fill="#475569" font-family="monospace" font-size="11">405 ns</text><text x="180" y="1220" fill="#334155" font-family="monospace" font-size="12" text-anchor="end">StructSimpleCrossFieldSuc...</text><rect x="190" y="1198" width="30.9" height="28" rx="4" fill="#3B82F6" opacity="0.9"/><text x="226" y="1220" fill="#475569" font-family="monospace" font-size="11">124 ns</text><rect x="190" y="1232" width="64.8" height="28" rx="4" fill="#F97316" opacity="0.9"/><text x="260" y="1254" fill="#475569" font-family="monospace" font-size="11">260 ns</text><text x="180" y="1302" fill="#334155" font-family="monospace" font-size="12" text-anchor="end">StructSimpleCrossStructCr...</text><rect x="190" y="1280" width="89.6" height="28" rx="4" fill="#3B82F6" opacity="0.9"/><text x="285" y="1302" fill="#475569" font-family="monospace" font-size="11">359 ns</text><rect x="190" y="1314" width="131.9" height="28" rx="4" fill="#F97316" opacity="0.9"/><text x="327" y="1336" fill="#475569" font-family="monospace" font-size="11">530 ns</text><text x="180" y="1384" fill="#334155" font-family="monospace" font-size="12" text-anchor="end">StructSimpleCrossStructCr...</text><rect x="190" y="1362" width="60.1" height="28" rx="4" fill="#3B82F6" opacity="0.9"/><text x="256" y="1384" fill="#475569" font-family="monospace" font-size="11">241 ns</text><rect x="190" y="1396" width="96.1" height="28" rx="4" fill="#F97316" opacity="0.9"/><text x="292" y="1418" fill="#475569" font-family="monospace" font-size="11">386 ns</text><text x="180" y="1466" fill="#334155" font-family="monospace" font-size="12" text-anchor="end">StructSimpleFailureParallel</text><rect x="190" y="1444" width="70.1" height="28" rx="4" fill="#3B82F6" opacity="0.9"/><text x="266" y="1466" fill="#475569" font-family="monospace" font-size="11">281 ns</text><rect x="190" y="1478" width="94.6" height="28" rx="4" fill="#F97316" opacity="0.9"/><text x="290" y="1500" fill="#475569" font-family="monospace" font-size="11">380 ns</text><text x="180" y="1548" fill="#334155" font-family="monospace" font-size="12" text-anchor="end">StructSimpleSuccessParallel</text><rect x="190" y="1526" width="24.3" height="28" rx="4" fill="#3B82F6" opacity="0.9"/><text x="220" y="1548" fill="#475569" font-family="monospace" font-size="11">97 ns</text><rect x="190" y="1560" width="39.7" height="28" rx="4" fill="#F97316" opacity="0.9"/><text x="235" y="1582" fill="#475569" font-family="monospace" font-size="11">159 ns</text><text x="180" y="1630" fill="#334155" font-family="monospace" font-size="12" text-anchor="end">VarPathParallel</text><rect x="190" y="1608" width="0.5" height="28" rx="4" fill="#3B82F6" opacity="0.9"/><text x="196" y="1630" fill="#475569" font-family="monospace" font-size="11">2 ns</text><rect x="190" y="1642" width="7.5" height="28" rx="4" fill="#F97316" opacity="0.9"/><text x="203" y="1664" fill="#475569" font-family="monospace" font-size="11">30 ns</text><text x="190" y="1750" fill="#94A3B8" font-family="system-ui,sans-serif" font-size="10">Lower is better ▸</text></svg>