<svg xmlns="http://www.w3.org/2000/svg" width="800" height="6926" viewBox="0 0 800 6926"><rect width="100%" height="100%" fill="#FFFFFF" rx="12"/><text x="190" y="30" fill="#1E293B" font-family="system-ui,-apple-system,sans-serif" font-size="16" font-weight="600">Latency Comparison (ns/op) — Sequential</text><rect x="550" y="14" width="14" height="14" rx="3" fill="#3B82F6"/><text x="568" y="26" fill="#64748B" font-family="system-ui,sans-serif" font-size="12">go-argus</text><rect x="680" y="14" width="14" height="14" rx="3" fill="#F97316"/><text x="698" y="26" fill="#64748B" font-family="system-ui,sans-serif" font-size="12">validator/v10</text><text x="180" y="72" fill="#334155" font-family="monospace" font-size="12" text-anchor="end">ComplexOrder_Invalid</text><rect x="190" y="50" width="233.9" height="28" rx="4" fill="#3B82F6" opacity="0.9"/><text x="429" y="72" fill="#475569" font-family="monospace" font-size="11">2450 ns</text><rect x="190" y="84" width="341.0" height="28" rx="4" fill="#F97316" opacity="0.9"/><text x="537" y="106" fill="#475569" font-family="monospace" font-size="11">3573 ns</text><text x="180" y="154" fill="#334155" font-family="monospace" font-size="12" text-anchor="end">ComplexOrder_Valid</text><rect x="190" y="132" width="156.5" height="28" rx="4" fill="#3B82F6" opacity="0.9"/><text x="352" y="154" fill="#475569" font-family="monospace" font-size="11">1639 ns</text><rect x="190" y="166" width="550.0" height="28" rx="4" fill="#F97316" opacity="0.9"/><text x="746" y="188" fill="#475569" font-family="monospace" font-size="11">5763 ns</text><text x="180" y="236" fill="#334155" font-family="monospace" font-size="12" text-anchor="end">EqField</text><rect x="190" y="214" width="19.1" height="28" rx="4" fill="#3B82F6" opacity="0.9"/><text x="215" y="236" fill="#475569" font-family="monospace" font-size="11">201 ns</text><rect x="190" y="248" width="22.5" height="28" rx="4" fill="#F97316" opacity="0.9"/><text x="218" y="270" fill="#475569" font-family="monospace" font-size="11">236 ns</text><text x="180" y="318" fill="#334155" font-family="monospace" font-size="12" text-anchor="end">FieldArrayDiveFailure</text><rect x="190" y="296" width="52.6" height="28" rx="4" fill="#3B82F6" opacity="0.9"/><text x="248" y="318" fill="#475569" font-family="monospace" font-size="11">551 ns</text><rect x="190" y="330" width="54.8" height="28" rx="4" fill="#F97316" opacity="0.9"/><text x="250" y="352" fill="#475569" font-family="monospace" font-size="11">574 ns</text><text x="180" y="400" fill="#334155" font-family="monospace" font-size="12" text-anchor="end">FieldArrayDiveSuccess</text><rect x="190" y="378" width="22.8" height="28" rx="4" fill="#3B82F6" opacity="0.9"/><text x="218" y="400" fill="#475569" font-family="monospace" font-size="11">239 ns</text><rect x="190" y="412" width="39.3" height="28" rx="4" fill="#F97316" opacity="0.9"/><text x="235" y="434" fill="#475569" font-family="monospace" font-size="11">411 ns</text><text x="180" y="482" fill="#334155" font-family="monospace" font-size="12" text-anchor="end">FieldFailure</text><rect x="190" y="460" width="11.8" height="28" rx="4" fill="#3B82F6" opacity="0.9"/><text x="207" y="482" fill="#475569" font-family="monospace" font-size="11">123 ns</text><rect x="190" y="494" width="25.9" height="28" rx="4" fill="#F97316" opacity="0.9"/><text x="221" y="516" fill="#475569" font-family="monospace" font-size="11">272 ns</text><text x="180" y="564" fill="#334155" font-family="monospace" font-size="12" text-anchor="end">FieldMapDiveFailure</text><rect x="190" y="542" width="71.3" height="28" rx="4" fill="#3B82F6" opacity="0.9"/><text x="267" y="564" fill="#475569" font-family="monospace" font-size="11">747 ns</text><rect x="190" y="576" width="85.7" height="28" rx="4" fill="#F97316" opacity="0.9"/><text x="281" y="598" fill="#475569" font-family="monospace" font-size="11">898 ns</text><text x="180" y="646" fill="#334155" font-family="monospace" font-size="12" text-anchor="end">FieldMapDiveSuccess</text><rect x="190" y="624" width="55.8" height="28" rx="4" fill="#3B82F6" opacity="0.9"/><text x="251" y="646" fill="#475569" font-family="monospace" font-size="11">585 ns</text><rect x="190" y="658" width="104.1" height="28" rx="4" fill="#F97316" opacity="0.9"/><text x="300" y="680" fill="#475569" font-family="monospace" font-size="11">1091 ns</text><text x="180" y="728" fill="#334155" font-family="monospace" font-size="12" text-anchor="end">FieldMapDiveWithKeysFailure</text><rect x="190" y="706" width="87.2" height="28" rx="4" fill="#3B82F6" opacity="0.9"/><text x="283" y="728" fill="#475569" font-family="monospace" font-size="11">914 ns</text><rect x="190" y="740" width="108.2" height="28" rx="4" fill="#F97316" opacity="0.9"/><text x="304" y="762" fill="#475569" font-family="monospace" font-size="11">1134 ns</text><text x="180" y="810" fill="#334155" font-family="monospace" font-size="12" text-anchor="end">FieldMapDiveWithKeysSuccess</text><rect x="190" y="788" width="66.4" height="28" rx="4" fill="#3B82F6" opacity="0.9"/><text x="262" y="810" fill="#475569" font-family="monospace" font-size="11">696 ns</text><rect x="190" y="822" width="114.7" height="28" rx="4" fill="#F97316" opacity="0.9"/><text x="310" y="844" fill="#475569" font-family="monospace" font-size="11">1202 ns</text><text x="180" y="892" fill="#334155" font-family="monospace" font-size="12" text-anchor="end">FieldOrTagFailure</text><rect x="190" y="870" width="17.4" height="28" rx="4" fill="#3B82F6" opacity="0.9"/><text x="213" y="892" fill="#475569" font-family="monospace" font-size="11">182 ns</text><rect x="190" y="904" width="23.6" height="28" rx="4" fill="#F97316" opacity="0.9"/><text x="219" y="926" fill="#475569" font-family="monospace" font-size="11">247 ns</text><text x="180" y="974" fill="#334155" font-family="monospace" font-size="12" text-anchor="end">FieldOrTagSuccess</text><rect x="190" y="952" width="11.0" height="28" rx="4" fill="#3B82F6" opacity="0.9"/><text x="207" y="974" fill="#475569" font-family="monospace" font-size="11">115 ns</text><rect x="190" y="986" width="43.3" height="28" rx="4" fill="#F97316" opacity="0.9"/><text x="239" y="1008" fill="#475569" font-family="monospace" font-size="11">454 ns</text><text x="180" y="1056" fill="#334155" font-family="monospace" font-size="12" text-anchor="end">FieldSuccess</text><rect x="190" y="1034" width="3.6" height="28" rx="4" fill="#3B82F6" opacity="0.9"/><text x="199" y="1056" fill="#475569" font-family="monospace" font-size="11">38 ns</text><rect x="190" y="1068" width="10.2" height="28" rx="4" fill="#F97316" opacity="0.9"/><text x="206" y="1090" fill="#475569" font-family="monospace" font-size="11">107 ns</text><text x="180" y="1138" fill="#334155" font-family="monospace" font-size="12" text-anchor="end">NestedWorkspace_Invalid</text><rect x="190" y="1116" width="96.7" height="28" rx="4" fill="#3B82F6" opacity="0.9"/><text x="292" y="1138" fill="#475569" font-family="monospace" font-size="11">1014 ns</text><rect x="190" y="1150" width="331.9" height="28" rx="4" fill="#F97316" opacity="0.9"/><text x="527" y="1172" fill="#475569" font-family="monospace" font-size="11">3478 ns</text><text x="180" y="1220" fill="#334155" font-family="monospace" font-size="12" text-anchor="end">NestedWorkspace_Valid</text><rect x="190" y="1198" width="72.6" height="28" rx="4" fill="#3B82F6" opacity="0.9"/><text x="268" y="1220" fill="#475569" font-family="monospace" font-size="11">761 ns</text><rect x="190" y="1232" width="501.4" height="28" rx="4" fill="#F97316" opacity="0.9"/><text x="697" y="1254" fill="#475569" font-family="monospace" font-size="11">5254 ns</text><text x="180" y="1302" fill="#334155" font-family="monospace" font-size="12" text-anchor="end">Oneof</text><rect x="190" y="1280" width="13.7" height="28" rx="4" fill="#3B82F6" opacity="0.9"/><text x="209" y="1302" fill="#475569" font-family="monospace" font-size="11">144 ns</text><rect x="190" y="1314" width="14.7" height="28" rx="4" fill="#F97316" opacity="0.9"/><text x="210" y="1336" fill="#475569" font-family="monospace" font-size="11">154 ns</text><text x="180" y="1384" fill="#334155" font-family="monospace" font-size="12" text-anchor="end">RequiredIf</text><rect x="190" y="1362" width="23.8" height="28" rx="4" fill="#3B82F6" opacity="0.9"/><text x="219" y="1384" fill="#475569" font-family="monospace" font-size="11">249 ns</text><rect x="190" y="1396" width="32.0" height="28" rx="4" fill="#F97316" opacity="0.9"/><text x="227" y="1418" fill="#475569" font-family="monospace" font-size="11">335 ns</text><text x="180" y="1466" fill="#334155" font-family="monospace" font-size="12" text-anchor="end">SimpleUser_Invalid</text><rect x="190" y="1444" width="61.9" height="28" rx="4" fill="#3B82F6" opacity="0.9"/><text x="257" y="1466" fill="#475569" font-family="monospace" font-size="11">649 ns</text><rect x="190" y="1478" width="113.4" height="28" rx="4" fill="#F97316" opacity="0.9"/><text x="309" y="1500" fill="#475569" font-family="monospace" font-size="11">1188 ns</text><text x="180" y="1548" fill="#334155" font-family="monospace" font-size="12" text-anchor="end">SimpleUser_Valid</text><rect x="190" y="1526" width="36.8" height="28" rx="4" fill="#3B82F6" opacity="0.9"/><text x="232" y="1548" fill="#475569" font-family="monospace" font-size="11">386 ns</text><rect x="190" y="1560" width="122.3" height="28" rx="4" fill="#F97316" opacity="0.9"/><text x="318" y="1582" fill="#475569" font-family="monospace" font-size="11">1281 ns</text><text x="180" y="1630" fill="#334155" font-family="monospace" font-size="12" text-anchor="end">StructComplexFailure</text><rect x="190" y="1608" width="211.9" height="28" rx="4" fill="#3B82F6" opacity="0.9"/><text x="407" y="1630" fill="#475569" font-family="monospace" font-size="11">2221 ns</text><rect x="190" y="1642" width="313.9" height="28" rx="4" fill="#F97316" opacity="0.9"/><text x="509" y="1664" fill="#475569" font-family="monospace" font-size="11">3289 ns</text><text x="180" y="1712" fill="#334155" font-family="monospace" font-size="12" text-anchor="end">StructComplexSuccess</text><rect x="190" y="1690" width="65.6" height="28" rx="4" fill="#3B82F6" opacity="0.9"/><text x="261" y="1712" fill="#475569" font-family="monospace" font-size="11">687 ns</text><rect x="190" y="1724" width="125.4" height="28" rx="4" fill="#F97316" opacity="0.9"/><text x="321" y="1746" fill="#475569" font-family="monospace" font-size="11">1314 ns</text><text x="180" y="1794" fill="#334155" font-family="monospace" font-size="12" text-anchor="end">StructSimpleCrossFieldFai...</text><rect x="190" y="1772" width="41.2" height="28" rx="4" fill="#3B82F6" opacity="0.9"/><text x="237" y="1794" fill="#475569" font-family="monospace" font-size="11">432 ns</text><rect x="190" y="1806" width="69.6" height="28" rx="4" fill="#F97316" opacity="0.9"/><text x="265" y="1828" fill="#475569" font-family="monospace" font-size="11">729 ns</text><text x="180" y="1876" fill="#334155" font-family="monospace" font-size="12" text-anchor="end">StructSimpleCrossFieldSuc...</text><rect x="190" y="1854" width="24.1" height="28" rx="4" fill="#3B82F6" opacity="0.9"/><text x="220" y="1876" fill="#475569" font-family="monospace" font-size="11">252 ns</text><rect x="190" y="1888" width="47.8" height="28" rx="4" fill="#F97316" opacity="0.9"/><text x="243" y="1910" fill="#475569" font-family="monospace" font-size="11">501 ns</text><text x="180" y="1958" fill="#334155" font-family="monospace" font-size="12" text-anchor="end">StructSimpleCrossStructCr...</text><rect x="190" y="1936" width="66.0" height="28" rx="4" fill="#3B82F6" opacity="0.9"/><text x="261" y="1958" fill="#475569" font-family="monospace" font-size="11">691 ns</text><rect x="190" y="1970" width="95.5" height="28" rx="4" fill="#F97316" opacity="0.9"/><text x="291" y="1992" fill="#475569" font-family="monospace" font-size="11">1001 ns</text><text x="180" y="2040" fill="#334155" font-family="monospace" font-size="12" text-anchor="end">StructSimpleCrossStructCr...</text><rect x="190" y="2018" width="47.3" height="28" rx="4" fill="#3B82F6" opacity="0.9"/><text x="243" y="2040" fill="#475569" font-family="monospace" font-size="11">496 ns</text><rect x="190" y="2052" width="73.1" height="28" rx="4" fill="#F97316" opacity="0.9"/><text x="269" y="2074" fill="#475569" font-family="monospace" font-size="11">766 ns</text><text x="180" y="2122" fill="#334155" font-family="monospace" font-size="12" text-anchor="end">StructSimpleFailure</text><rect x="190" y="2100" width="42.8" height="28" rx="4" fill="#3B82F6" opacity="0.9"/><text x="238" y="2122" fill="#475569" font-family="monospace" font-size="11">448 ns</text><rect x="190" y="2134" width="55.7" height="28" rx="4" fill="#F97316" opacity="0.9"/><text x="251" y="2156" fill="#475569" font-family="monospace" font-size="11">584 ns</text><text x="180" y="2204" fill="#334155" font-family="monospace" font-size="12" text-anchor="end">StructSimpleSuccess</text><rect x="190" y="2182" width="18.1" height="28" rx="4" fill="#3B82F6" opacity="0.9"/><text x="214" y="2204" fill="#475569" font-family="monospace" font-size="11">190 ns</text><rect x="190" y="2216" width="28.3" height="28" rx="4" fill="#F97316" opacity="0.9"/><text x="224" y="2238" fill="#475569" font-family="monospace" font-size="11">297 ns</text><text x="180" y="2286" fill="#334155" font-family="monospace" font-size="12" text-anchor="end">VarPath</text><rect x="190" y="2264" width="0.4" height="28" rx="4" fill="#3B82F6" opacity="0.9"/><text x="196" y="2286" fill="#475569" font-family="monospace" font-size="11">4 ns</text><rect x="190" y="2298" width="4.5" height="28" rx="4" fill="#F97316" opacity="0.9"/><text x="200" y="2320" fill="#475569" font-family="monospace" font-size="11">47 ns</text><text x="180" y="2368" fill="#334155" font-family="monospace" font-size="12" text-anchor="end">Var_ASCII</text><rect x="190" y="2346" width="8.8" height="28" rx="4" fill="#3B82F6" opacity="0.9"/><text x="204" y="2368" fill="#475569" font-family="monospace" font-size="11">92 ns</text><rect x="190" y="2380" width="32.1" height="28" rx="4" fill="#F97316" opacity="0.9"/><text x="228" y="2402" fill="#475569" font-family="monospace" font-size="11">336 ns</text><text x="180" y="2450" fill="#334155" font-family="monospace" font-size="12" text-anchor="end">Var_Alpha</text><rect x="190" y="2428" width="8.2" height="28" rx="4" fill="#3B82F6" opacity="0.9"/><text x="204" y="2450" fill="#475569" font-family="monospace" font-size="11">86 ns</text><rect x="190" y="2462" width="25.7" height="28" rx="4" fill="#F97316" opacity="0.9"/><text x="221" y="2484" fill="#475569" font-family="monospace" font-size="11">269 ns</text><text x="180" y="2532" fill="#334155" font-family="monospace" font-size="12" text-anchor="end">Var_Alphanum</text><rect x="190" y="2510" width="7.9" height="28" rx="4" fill="#3B82F6" opacity="0.9"/><text x="203" y="2532" fill="#475569" font-family="monospace" font-size="11">83 ns</text><rect x="190" y="2544" width="24.1" height="28" rx="4" fill="#F97316" opacity="0.9"/><text x="220" y="2566" fill="#475569" font-family="monospace" font-size="11">252 ns</text><text x="180" y="2614" fill="#334155" font-family="monospace" font-size="12" text-anchor="end">Var_Base64</text><rect x="190" y="2592" width="9.8" height="28" rx="4" fill="#3B82F6" opacity="0.9"/><text x="205" y="2614" fill="#475569" font-family="monospace" font-size="11">102 ns</text><rect x="190" y="2626" width="28.8" height="28" rx="4" fill="#F97316" opacity="0.9"/><text x="224" y="2648" fill="#475569" font-family="monospace" font-size="11">301 ns</text><text x="180" y="2696" fill="#334155" font-family="monospace" font-size="12" text-anchor="end">Var_Base64URL</text><rect x="190" y="2674" width="10.1" height="28" rx="4" fill="#3B82F6" opacity="0.9"/><text x="206" y="2696" fill="#475569" font-family="monospace" font-size="11">106 ns</text><rect x="190" y="2708" width="28.4" height="28" rx="4" fill="#F97316" opacity="0.9"/><text x="224" y="2730" fill="#475569" font-family="monospace" font-size="11">297 ns</text><text x="180" y="2778" fill="#334155" font-family="monospace" font-size="12" text-anchor="end">Var_Boolean</text><rect x="190" y="2756" width="7.7" height="28" rx="4" fill="#3B82F6" opacity="0.9"/><text x="203" y="2778" fill="#475569" font-family="monospace" font-size="11">80 ns</text><rect x="190" y="2790" width="7.6" height="28" rx="4" fill="#F97316" opacity="0.9"/><text x="203" y="2812" fill="#475569" font-family="monospace" font-size="11">80 ns</text><text x="180" y="2860" fill="#334155" font-family="monospace" font-size="12" text-anchor="end">Var_CIDR</text><rect x="190" y="2838" width="9.6" height="28" rx="4" fill="#3B82F6" opacity="0.9"/><text x="205" y="2860" fill="#475569" font-family="monospace" font-size="11">101 ns</text><rect x="190" y="2872" width="22.1" height="28" rx="4" fill="#F97316" opacity="0.9"/><text x="218" y="2894" fill="#475569" font-family="monospace" font-size="11">232 ns</text><text x="180" y="2942" fill="#334155" font-family="monospace" font-size="12" text-anchor="end">Var_Contains</text><rect x="190" y="2920" width="8.4" height="28" rx="4" fill="#3B82F6" opacity="0.9"/><text x="204" y="2942" fill="#475569" font-family="monospace" font-size="11">88 ns</text><rect x="190" y="2954" width="8.4" height="28" rx="4" fill="#F97316" opacity="0.9"/><text x="204" y="2976" fill="#475569" font-family="monospace" font-size="11">88 ns</text><text x="180" y="3024" fill="#334155" font-family="monospace" font-size="12" text-anchor="end">Var_Datetime</text><rect x="190" y="3002" width="11.4" height="28" rx="4" fill="#3B82F6" opacity="0.9"/><text x="207" y="3024" fill="#475569" font-family="monospace" font-size="11">119 ns</text><rect x="190" y="3036" width="42.4" height="28" rx="4" fill="#F97316" opacity="0.9"/><text x="238" y="3058" fill="#475569" font-family="monospace" font-size="11">444 ns</text><text x="180" y="3106" fill="#334155" font-family="monospace" font-size="12" text-anchor="end">Var_E164</text><rect x="190" y="3084" width="7.9" height="28" rx="4" fill="#3B82F6" opacity="0.9"/><text x="203" y="3106" fill="#475569" font-family="monospace" font-size="11">83 ns</text><rect x="190" y="3118" width="25.5" height="28" rx="4" fill="#F97316" opacity="0.9"/><text x="221" y="3140" fill="#475569" font-family="monospace" font-size="11">267 ns</text><text x="180" y="3188" fill="#334155" font-family="monospace" font-size="12" text-anchor="end">Var_Email</text><rect x="190" y="3166" width="14.1" height="28" rx="4" fill="#3B82F6" opacity="0.9"/><text x="210" y="3188" fill="#475569" font-family="monospace" font-size="11">148 ns</text><rect x="190" y="3200" width="96.8" height="28" rx="4" fill="#F97316" opacity="0.9"/><text x="292" y="3222" fill="#475569" font-family="monospace" font-size="11">1014 ns</text><text x="180" y="3270" fill="#334155" font-family="monospace" font-size="12" text-anchor="end">Var_EndsWith</text><rect x="190" y="3248" width="3.3" height="28" rx="4" fill="#3B82F6" opacity="0.9"/><text x="199" y="3270" fill="#475569" font-family="monospace" font-size="11">34 ns</text><rect x="190" y="3282" width="8.7" height="28" rx="4" fill="#F97316" opacity="0.9"/><text x="204" y="3304" fill="#475569" font-family="monospace" font-size="11">91 ns</text><text x="180" y="3352" fill="#334155" font-family="monospace" font-size="12" text-anchor="end">Var_Eq</text><rect x="190" y="3330" width="7.4" height="28" rx="4" fill="#3B82F6" opacity="0.9"/><text x="203" y="3352" fill="#475569" font-family="monospace" font-size="11">77 ns</text><rect x="190" y="3364" width="7.8" height="28" rx="4" fill="#F97316" opacity="0.9"/><text x="203" y="3386" fill="#475569" font-family="monospace" font-size="11">82 ns</text><text x="180" y="3434" fill="#334155" font-family="monospace" font-size="12" text-anchor="end">Var_FQDN</text><rect x="190" y="3412" width="9.5" height="28" rx="4" fill="#3B82F6" opacity="0.9"/><text x="205" y="3434" fill="#475569" font-family="monospace" font-size="11">99 ns</text><rect x="190" y="3446" width="33.0" height="28" rx="4" fill="#F97316" opacity="0.9"/><text x="229" y="3468" fill="#475569" font-family="monospace" font-size="11">346 ns</text><text x="180" y="3516" fill="#334155" font-family="monospace" font-size="12" text-anchor="end">Var_Gt</text><rect x="190" y="3494" width="14.1" height="28" rx="4" fill="#3B82F6" opacity="0.9"/><text x="210" y="3516" fill="#475569" font-family="monospace" font-size="11">148 ns</text><rect x="190" y="3528" width="22.5" height="28" rx="4" fill="#F97316" opacity="0.9"/><text x="218" y="3550" fill="#475569" font-family="monospace" font-size="11">236 ns</text><text x="180" y="3598" fill="#334155" font-family="monospace" font-size="12" text-anchor="end">Var_Gte</text><rect x="190" y="3576" width="14.3" height="28" rx="4" fill="#3B82F6" opacity="0.9"/><text x="210" y="3598" fill="#475569" font-family="monospace" font-size="11">150 ns</text><rect x="190" y="3610" width="22.2" height="28" rx="4" fill="#F97316" opacity="0.9"/><text x="218" y="3632" fill="#475569" font-family="monospace" font-size="11">233 ns</text><text x="180" y="3680" fill="#334155" font-family="monospace" font-size="12" text-anchor="end">Var_HSL</text><rect x="190" y="3658" width="10.9" height="28" rx="4" fill="#3B82F6" opacity="0.9"/><text x="206" y="3680" fill="#475569" font-family="monospace" font-size="11">115 ns</text><rect x="190" y="3692" width="37.6" height="28" rx="4" fill="#F97316" opacity="0.9"/><text x="233" y="3714" fill="#475569" font-family="monospace" font-size="11">394 ns</text><text x="180" y="3762" fill="#334155" font-family="monospace" font-size="12" text-anchor="end">Var_HSLA</text><rect x="190" y="3740" width="11.3" height="28" rx="4" fill="#3B82F6" opacity="0.9"/><text x="207" y="3762" fill="#475569" font-family="monospace" font-size="11">119 ns</text><rect x="190" y="3774" width="45.2" height="28" rx="4" fill="#F97316" opacity="0.9"/><text x="241" y="3796" fill="#475569" font-family="monospace" font-size="11">474 ns</text><text x="180" y="3844" fill="#334155" font-family="monospace" font-size="12" text-anchor="end">Var_HTML</text><rect x="190" y="3822" width="8.4" height="28" rx="4" fill="#3B82F6" opacity="0.9"/><text x="204" y="3844" fill="#475569" font-family="monospace" font-size="11">88 ns</text><rect x="190" y="3856" width="20.9" height="28" rx="4" fill="#F97316" opacity="0.9"/><text x="216" y="3878" fill="#475569" font-family="monospace" font-size="11">219 ns</text><text x="180" y="3926" fill="#334155" font-family="monospace" font-size="12" text-anchor="end">Var_HTMLEncoded</text><rect x="190" y="3904" width="7.4" height="28" rx="4" fill="#3B82F6" opacity="0.9"/><text x="203" y="3926" fill="#475569" font-family="monospace" font-size="11">78 ns</text><rect x="190" y="3938" width="18.4" height="28" rx="4" fill="#F97316" opacity="0.9"/><text x="214" y="3960" fill="#475569" font-family="monospace" font-size="11">193 ns</text><text x="180" y="4008" fill="#334155" font-family="monospace" font-size="12" text-anchor="end">Var_HexColor</text><rect x="190" y="3986" width="7.8" height="28" rx="4" fill="#3B82F6" opacity="0.9"/><text x="203" y="4008" fill="#475569" font-family="monospace" font-size="11">82 ns</text><rect x="190" y="4020" width="31.1" height="28" rx="4" fill="#F97316" opacity="0.9"/><text x="227" y="4042" fill="#475569" font-family="monospace" font-size="11">326 ns</text><text x="180" y="4090" fill="#334155" font-family="monospace" font-size="12" text-anchor="end">Var_Hexadecimal</text><rect x="190" y="4068" width="8.2" height="28" rx="4" fill="#3B82F6" opacity="0.9"/><text x="204" y="4090" fill="#475569" font-family="monospace" font-size="11">86 ns</text><rect x="190" y="4102" width="26.8" height="28" rx="4" fill="#F97316" opacity="0.9"/><text x="222" y="4124" fill="#475569" font-family="monospace" font-size="11">280 ns</text><text x="180" y="4172" fill="#334155" font-family="monospace" font-size="12" text-anchor="end">Var_Hostname</text><rect x="190" y="4150" width="9.3" height="28" rx="4" fill="#3B82F6" opacity="0.9"/><text x="205" y="4172" fill="#475569" font-family="monospace" font-size="11">98 ns</text><rect x="190" y="4184" width="37.5" height="28" rx="4" fill="#F97316" opacity="0.9"/><text x="233" y="4206" fill="#475569" font-family="monospace" font-size="11">393 ns</text><text x="180" y="4254" fill="#334155" font-family="monospace" font-size="12" text-anchor="end">Var_HostnamePort</text><rect x="190" y="4232" width="9.4" height="28" rx="4" fill="#3B82F6" opacity="0.9"/><text x="205" y="4254" fill="#475569" font-family="monospace" font-size="11">98 ns</text><rect x="190" y="4266" width="35.7" height="28" rx="4" fill="#F97316" opacity="0.9"/><text x="231" y="4288" fill="#475569" font-family="monospace" font-size="11">374 ns</text><text x="180" y="4336" fill="#334155" font-family="monospace" font-size="12" text-anchor="end">Var_IP</text><rect x="190" y="4314" width="9.3" height="28" rx="4" fill="#3B82F6" opacity="0.9"/><text x="205" y="4336" fill="#475569" font-family="monospace" font-size="11">97 ns</text><rect x="190" y="4348" width="9.9" height="28" rx="4" fill="#F97316" opacity="0.9"/><text x="205" y="4370" fill="#475569" font-family="monospace" font-size="11">104 ns</text><text x="180" y="4418" fill="#334155" font-family="monospace" font-size="12" text-anchor="end">Var_IPv4</text><rect x="190" y="4396" width="9.1" height="28" rx="4" fill="#3B82F6" opacity="0.9"/><text x="205" y="4418" fill="#475569" font-family="monospace" font-size="11">95 ns</text><rect x="190" y="4430" width="10.7" height="28" rx="4" fill="#F97316" opacity="0.9"/><text x="206" y="4452" fill="#475569" font-family="monospace" font-size="11">112 ns</text><text x="180" y="4500" fill="#334155" font-family="monospace" font-size="12" text-anchor="end">Var_IPv6</text><rect x="190" y="4478" width="7.6" height="28" rx="4" fill="#3B82F6" opacity="0.9"/><text x="203" y="4500" fill="#475569" font-family="monospace" font-size="11">80 ns</text><rect x="190" y="4512" width="10.0" height="28" rx="4" fill="#F97316" opacity="0.9"/><text x="205" y="4534" fill="#475569" font-family="monospace" font-size="11">105 ns</text><text x="180" y="4582" fill="#334155" font-family="monospace" font-size="12" text-anchor="end">Var_JSON</text><rect x="190" y="4560" width="11.1" height="28" rx="4" fill="#3B82F6" opacity="0.9"/><text x="207" y="4582" fill="#475569" font-family="monospace" font-size="11">117 ns</text><rect x="190" y="4594" width="13.6" height="28" rx="4" fill="#F97316" opacity="0.9"/><text x="209" y="4616" fill="#475569" font-family="monospace" font-size="11">142 ns</text><text x="180" y="4664" fill="#334155" font-family="monospace" font-size="12" text-anchor="end">Var_Latitude</text><rect x="190" y="4642" width="11.5" height="28" rx="4" fill="#3B82F6" opacity="0.9"/><text x="207" y="4664" fill="#475569" font-family="monospace" font-size="11">121 ns</text><rect x="190" y="4676" width="25.1" height="28" rx="4" fill="#F97316" opacity="0.9"/><text x="221" y="4698" fill="#475569" font-family="monospace" font-size="11">263 ns</text><text x="180" y="4746" fill="#334155" font-family="monospace" font-size="12" text-anchor="end">Var_Len</text><rect x="190" y="4724" width="6.3" height="28" rx="4" fill="#3B82F6" opacity="0.9"/><text x="202" y="4746" fill="#475569" font-family="monospace" font-size="11">66 ns</text><rect x="190" y="4758" width="9.0" height="28" rx="4" fill="#F97316" opacity="0.9"/><text x="205" y="4780" fill="#475569" font-family="monospace" font-size="11">95 ns</text><text x="180" y="4828" fill="#334155" font-family="monospace" font-size="12" text-anchor="end">Var_Longitude</text><rect x="190" y="4806" width="11.5" height="28" rx="4" fill="#3B82F6" opacity="0.9"/><text x="207" y="4828" fill="#475569" font-family="monospace" font-size="11">120 ns</text><rect x="190" y="4840" width="27.9" height="28" rx="4" fill="#F97316" opacity="0.9"/><text x="223" y="4862" fill="#475569" font-family="monospace" font-size="11">293 ns</text><text x="180" y="4910" fill="#334155" font-family="monospace" font-size="12" text-anchor="end">Var_Lowercase</text><rect x="190" y="4888" width="8.0" height="28" rx="4" fill="#3B82F6" opacity="0.9"/><text x="203" y="4910" fill="#475569" font-family="monospace" font-size="11">84 ns</text><rect x="190" y="4922" width="8.3" height="28" rx="4" fill="#F97316" opacity="0.9"/><text x="204" y="4944" fill="#475569" font-family="monospace" font-size="11">87 ns</text><text x="180" y="4992" fill="#334155" font-family="monospace" font-size="12" text-anchor="end">Var_Lt</text><rect x="190" y="4970" width="6.1" height="28" rx="4" fill="#3B82F6" opacity="0.9"/><text x="202" y="4992" fill="#475569" font-family="monospace" font-size="11">64 ns</text><rect x="190" y="5004" width="8.9" height="28" rx="4" fill="#F97316" opacity="0.9"/><text x="204" y="5026" fill="#475569" font-family="monospace" font-size="11">93 ns</text><text x="180" y="5074" fill="#334155" font-family="monospace" font-size="12" text-anchor="end">Var_Lte</text><rect x="190" y="5052" width="6.5" height="28" rx="4" fill="#3B82F6" opacity="0.9"/><text x="202" y="5074" fill="#475569" font-family="monospace" font-size="11">68 ns</text><rect x="190" y="5086" width="9.2" height="28" rx="4" fill="#F97316" opacity="0.9"/><text x="205" y="5108" fill="#475569" font-family="monospace" font-size="11">96 ns</text><text x="180" y="5156" fill="#334155" font-family="monospace" font-size="12" text-anchor="end">Var_MAC</text><rect x="190" y="5134" width="9.8" height="28" rx="4" fill="#3B82F6" opacity="0.9"/><text x="205" y="5156" fill="#475569" font-family="monospace" font-size="11">102 ns</text><rect x="190" y="5168" width="14.0" height="28" rx="4" fill="#F97316" opacity="0.9"/><text x="209" y="5190" fill="#475569" font-family="monospace" font-size="11">147 ns</text><text x="180" y="5238" fill="#334155" font-family="monospace" font-size="12" text-anchor="end">Var_Max</text><rect x="190" y="5216" width="6.4" height="28" rx="4" fill="#3B82F6" opacity="0.9"/><text x="202" y="5238" fill="#475569" font-family="monospace" font-size="11">68 ns</text><rect x="190" y="5250" width="8.9" height="28" rx="4" fill="#F97316" opacity="0.9"/><text x="204" y="5272" fill="#475569" font-family="monospace" font-size="11">93 ns</text><text x="180" y="5320" fill="#334155" font-family="monospace" font-size="12" text-anchor="end">Var_Min</text><rect x="190" y="5298" width="6.3" height="28" rx="4" fill="#3B82F6" opacity="0.9"/><text x="202" y="5320" fill="#475569" font-family="monospace" font-size="11">66 ns</text><rect x="190" y="5332" width="9.1" height="28" rx="4" fill="#F97316" opacity="0.9"/><text x="205" y="5354" fill="#475569" font-family="monospace" font-size="11">95 ns</text><text x="180" y="5402" fill="#334155" font-family="monospace" font-size="12" text-anchor="end">Var_MultiRule</text><rect x="190" y="5380" width="11.9" height="28" rx="4" fill="#3B82F6" opacity="0.9"/><text x="207" y="5402" fill="#475569" font-family="monospace" font-size="11">124 ns</text><rect x="190" y="5414" width="13.7" height="28" rx="4" fill="#F97316" opacity="0.9"/><text x="209" y="5436" fill="#475569" font-family="monospace" font-size="11">144 ns</text><text x="180" y="5484" fill="#334155" font-family="monospace" font-size="12" text-anchor="end">Var_Multibyte</text><rect x="190" y="5462" width="9.1" height="28" rx="4" fill="#3B82F6" opacity="0.9"/><text x="205" y="5484" fill="#475569" font-family="monospace" font-size="11">96 ns</text><rect x="190" y="5496" width="13.3" height="28" rx="4" fill="#F97316" opacity="0.9"/><text x="209" y="5518" fill="#475569" font-family="monospace" font-size="11">139 ns</text><text x="180" y="5566" fill="#334155" font-family="monospace" font-size="12" text-anchor="end">Var_Ne</text><rect x="190" y="5544" width="7.4" height="28" rx="4" fill="#3B82F6" opacity="0.9"/><text x="203" y="5566" fill="#475569" font-family="monospace" font-size="11">78 ns</text><rect x="190" y="5578" width="7.7" height="28" rx="4" fill="#F97316" opacity="0.9"/><text x="203" y="5600" fill="#475569" font-family="monospace" font-size="11">81 ns</text><text x="180" y="5648" fill="#334155" font-family="monospace" font-size="12" text-anchor="end">Var_Number</text><rect x="190" y="5626" width="10.2" height="28" rx="4" fill="#3B82F6" opacity="0.9"/><text x="206" y="5648" fill="#475569" font-family="monospace" font-size="11">107 ns</text><rect x="190" y="5660" width="18.4" height="28" rx="4" fill="#F97316" opacity="0.9"/><text x="214" y="5682" fill="#475569" font-family="monospace" font-size="11">193 ns</text><text x="180" y="5730" fill="#334155" font-family="monospace" font-size="12" text-anchor="end">Var_Oneof</text><rect x="190" y="5708" width="7.9" height="28" rx="4" fill="#3B82F6" opacity="0.9"/><text x="203" y="5730" fill="#475569" font-family="monospace" font-size="11">83 ns</text><rect x="190" y="5742" width="9.6" height="28" rx="4" fill="#F97316" opacity="0.9"/><text x="205" y="5764" fill="#475569" font-family="monospace" font-size="11">101 ns</text><text x="180" y="5812" fill="#334155" font-family="monospace" font-size="12" text-anchor="end">Var_Oneofci</text><rect x="190" y="5790" width="8.1" height="28" rx="4" fill="#3B82F6" opacity="0.9"/><text x="204" y="5812" fill="#475569" font-family="monospace" font-size="11">85 ns</text><rect x="190" y="5824" width="10.3" height="28" rx="4" fill="#F97316" opacity="0.9"/><text x="206" y="5846" fill="#475569" font-family="monospace" font-size="11">108 ns</text><text x="180" y="5894" fill="#334155" font-family="monospace" font-size="12" text-anchor="end">Var_RGB</text><rect x="190" y="5872" width="10.9" height="28" rx="4" fill="#3B82F6" opacity="0.9"/><text x="206" y="5894" fill="#475569" font-family="monospace" font-size="11">114 ns</text><rect x="190" y="5906" width="44.7" height="28" rx="4" fill="#F97316" opacity="0.9"/><text x="240" y="5928" fill="#475569" font-family="monospace" font-size="11">469 ns</text><text x="180" y="5976" fill="#334155" font-family="monospace" font-size="12" text-anchor="end">Var_RGBA</text><rect x="190" y="5954" width="11.1" height="28" rx="4" fill="#3B82F6" opacity="0.9"/><text x="207" y="5976" fill="#475569" font-family="monospace" font-size="11">116 ns</text><rect x="190" y="5988" width="50.1" height="28" rx="4" fill="#F97316" opacity="0.9"/><text x="246" y="6010" fill="#475569" font-family="monospace" font-size="11">525 ns</text><text x="180" y="6058" fill="#334155" font-family="monospace" font-size="12" text-anchor="end">Var_Required</text><rect x="190" y="6036" width="2.4" height="28" rx="4" fill="#3B82F6" opacity="0.9"/><text x="198" y="6058" fill="#475569" font-family="monospace" font-size="11">25 ns</text><rect x="190" y="6070" width="7.2" height="28" rx="4" fill="#F97316" opacity="0.9"/><text x="203" y="6092" fill="#475569" font-family="monospace" font-size="11">75 ns</text><text x="180" y="6140" fill="#334155" font-family="monospace" font-size="12" text-anchor="end">Var_StartsWith</text><rect x="190" y="6118" width="8.3" height="28" rx="4" fill="#3B82F6" opacity="0.9"/><text x="204" y="6140" fill="#475569" font-family="monospace" font-size="11">87 ns</text><rect x="190" y="6152" width="7.9" height="28" rx="4" fill="#F97316" opacity="0.9"/><text x="203" y="6174" fill="#475569" font-family="monospace" font-size="11">83 ns</text><text x="180" y="6222" fill="#334155" font-family="monospace" font-size="12" text-anchor="end">Var_URI</text><rect x="190" y="6200" width="8.8" height="28" rx="4" fill="#3B82F6" opacity="0.9"/><text x="204" y="6222" fill="#475569" font-family="monospace" font-size="11">92 ns</text><rect x="190" y="6234" width="18.6" height="28" rx="4" fill="#F97316" opacity="0.9"/><text x="214" y="6256" fill="#475569" font-family="monospace" font-size="11">195 ns</text><text x="180" y="6304" fill="#334155" font-family="monospace" font-size="12" text-anchor="end">Var_URL</text><rect x="190" y="6282" width="12.5" height="28" rx="4" fill="#3B82F6" opacity="0.9"/><text x="208" y="6304" fill="#475569" font-family="monospace" font-size="11">131 ns</text><rect x="190" y="6316" width="34.5" height="28" rx="4" fill="#F97316" opacity="0.9"/><text x="230" y="6338" fill="#475569" font-family="monospace" font-size="11">362 ns</text><text x="180" y="6386" fill="#334155" font-family="monospace" font-size="12" text-anchor="end">Var_URLEncoded</text><rect x="190" y="6364" width="8.6" height="28" rx="4" fill="#3B82F6" opacity="0.9"/><text x="204" y="6386" fill="#475569" font-family="monospace" font-size="11">90 ns</text><rect x="190" y="6398" width="37.7" height="28" rx="4" fill="#F97316" opacity="0.9"/><text x="233" y="6420" fill="#475569" font-family="monospace" font-size="11">395 ns</text><text x="180" y="6468" fill="#334155" font-family="monospace" font-size="12" text-anchor="end">Var_UUID</text><rect x="190" y="6446" width="12.7" height="28" rx="4" fill="#3B82F6" opacity="0.9"/><text x="208" y="6468" fill="#475569" font-family="monospace" font-size="11">133 ns</text><rect x="190" y="6480" width="39.7" height="28" rx="4" fill="#F97316" opacity="0.9"/><text x="235" y="6502" fill="#475569" font-family="monospace" font-size="11">416 ns</text><text x="180" y="6550" fill="#334155" font-family="monospace" font-size="12" text-anchor="end">Var_UUID3</text><rect x="190" y="6528" width="15.9" height="28" rx="4" fill="#3B82F6" opacity="0.9"/><text x="211" y="6550" fill="#475569" font-family="monospace" font-size="11">167 ns</text><rect x="190" y="6562" width="35.3" height="28" rx="4" fill="#F97316" opacity="0.9"/><text x="231" y="6584" fill="#475569" font-family="monospace" font-size="11">370 ns</text><text x="180" y="6632" fill="#334155" font-family="monospace" font-size="12" text-anchor="end">Var_UUID4</text><rect x="190" y="6610" width="12.8" height="28" rx="4" fill="#3B82F6" opacity="0.9"/><text x="208" y="6632" fill="#475569" font-family="monospace" font-size="11">134 ns</text><rect x="190" y="6644" width="39.2" height="28" rx="4" fill="#F97316" opacity="0.9"/><text x="235" y="6666" fill="#475569" font-family="monospace" font-size="11">411 ns</text><text x="180" y="6714" fill="#334155" font-family="monospace" font-size="12" text-anchor="end">Var_UUID5</text><rect x="190" y="6692" width="12.8" height="28" rx="4" fill="#3B82F6" opacity="0.9"/><text x="208" y="6714" fill="#475569" font-family="monospace" font-size="11">134 ns</text><rect x="190" y="6726" width="39.3" height="28" rx="4" fill="#F97316" opacity="0.9"/><text x="235" y="6748" fill="#475569" font-family="monospace" font-size="11">412 ns</text><text x="180" y="6796" fill="#334155" font-family="monospace" font-size="12" text-anchor="end">Var_Uppercase</text><rect x="190" y="6774" width="7.4" height="28" rx="4" fill="#3B82F6" opacity="0.9"/><text x="203" y="6796" fill="#475569" font-family="monospace" font-size="11">77 ns</text><rect x="190" y="6808" width="8.4" height="28" rx="4" fill="#F97316" opacity="0.9"/><text x="204" y="6830" fill="#475569" font-family="monospace" font-size="11">88 ns</text><text x="190" y="6916" fill="#94A3B8" font-family="system-ui,sans-serif" font-size="10">Lower is better ▸</text></svg>