<svg xmlns="http://www.w3.org/2000/svg" width="800" height="1760" viewBox="0 0 800 1760"><rect width="100%" height="100%" fill="#FFFFFF" rx="12"/><text x="190" y="30" fill="#1E293B" font-family="system-ui,-apple-system,sans-serif" font-size="16" font-weight="600">Latency Comparison (ns/op) — Parallel</text><rect x="550" y="14" width="14" height="14" rx="3" fill="#3B82F6"/><text x="568" y="26" fill="#64748B" font-family="system-ui,sans-serif" font-size="12">go-argus</text><rect x="680" y="14" width="14" height="14" rx="3" fill="#F97316"/><text x="698" y="26" fill="#64748B" font-family="system-ui,sans-serif" font-size="12">validator/v10</text><text x="180" y="72" fill="#334155" font-family="monospace" font-size="12" text-anchor="end">FieldArrayDiveFailurePara...</text><rect x="190" y="50" width="76.0" height="28" rx="4" fill="#3B82F6" opacity="0.9"/><text x="272" y="72" fill="#475569" font-family="monospace" font-size="11">340 ns</text><rect x="190" y="84" width="84.1" height="28" rx="4" fill="#F97316" opacity="0.9"/><text x="280" y="106" fill="#475569" font-family="monospace" font-size="11">376 ns</text><text x="180" y="154" fill="#334155" font-family="monospace" font-size="12" text-anchor="end">FieldArrayDiveSuccessPara...</text><rect x="190" y="132" width="30.9" height="28" rx="4" fill="#3B82F6" opacity="0.9"/><text x="226" y="154" fill="#475569" font-family="monospace" font-size="11">138 ns</text><rect x="190" y="166" width="58.3" height="28" rx="4" fill="#F97316" opacity="0.9"/><text x="254" y="188" fill="#475569" font-family="monospace" font-size="11">261 ns</text><text x="180" y="236" fill="#334155" font-family="monospace" font-size="12" text-anchor="end">FieldFailureParallel</text><rect x="190" y="214" width="18.3" height="28" rx="4" fill="#3B82F6" opacity="0.9"/><text x="214" y="236" fill="#475569" font-family="monospace" font-size="11">82 ns</text><rect x="190" y="248" width="43.3" height="28" rx="4" fill="#F97316" opacity="0.9"/><text x="239" y="270" fill="#475569" font-family="monospace" font-size="11">194 ns</text><text x="180" y="318" fill="#334155" font-family="monospace" font-size="12" text-anchor="end">FieldMapDiveFailureParallel</text><rect x="190" y="296" width="102.1" height="28" rx="4" fill="#3B82F6" opacity="0.9"/><text x="298" y="318" fill="#475569" font-family="monospace" font-size="11">457 ns</text><rect x="190" y="330" width="129.5" height="28" rx="4" fill="#F97316" opacity="0.9"/><text x="325" y="352" fill="#475569" font-family="monospace" font-size="11">579 ns</text><text x="180" y="400" fill="#334155" font-family="monospace" font-size="12" text-anchor="end">FieldMapDiveSuccessParallel</text><rect x="190" y="378" width="80.8" height="28" rx="4" fill="#3B82F6" opacity="0.9"/><text x="276" y="400" fill="#475569" font-family="monospace" font-size="11">361 ns</text><rect x="190" y="412" width="150.5" height="28" rx="4" fill="#F97316" opacity="0.9"/><text x="346" y="434" fill="#475569" font-family="monospace" font-size="11">673 ns</text><text x="180" y="482" fill="#334155" font-family="monospace" font-size="12" text-anchor="end">FieldMapDiveWithKeysFailu...</text><rect x="190" y="460" width="128.2" height="28" rx="4" fill="#3B82F6" opacity="0.9"/><text x="324" y="482" fill="#475569" font-family="monospace" font-size="11">573 ns</text><rect x="190" y="494" width="158.5" height="28" rx="4" fill="#F97316" opacity="0.9"/><text x="354" y="516" fill="#475569" font-family="monospace" font-size="11">709 ns</text><text x="180" y="564" fill="#334155" font-family="monospace" font-size="12" text-anchor="end">FieldMapDiveWithKeysSucce...</text><rect x="190" y="542" width="92.6" height="28" rx="4" fill="#3B82F6" opacity="0.9"/><text x="288" y="564" fill="#475569" font-family="monospace" font-size="11">414 ns</text><rect x="190" y="576" width="165.9" height="28" rx="4" fill="#F97316" opacity="0.9"/><text x="361" y="598" fill="#475569" font-family="monospace" font-size="11">742 ns</text><text x="180" y="646" fill="#334155" font-family="monospace" font-size="12" text-anchor="end">FieldOrTagFailureParallel</text><rect x="190" y="624" width="24.9" height="28" rx="4" fill="#3B82F6" opacity="0.9"/><text x="220" y="646" fill="#475569" font-family="monospace" font-size="11">111 ns</text><rect x="190" y="658" width="40.9" height="28" rx="4" fill="#F97316" opacity="0.9"/><text x="236" y="680" fill="#475569" font-family="monospace" font-size="11">183 ns</text><text x="180" y="728" fill="#334155" font-family="monospace" font-size="12" text-anchor="end">FieldOrTagSuccessParallel</text><rect x="190" y="706" width="15.0" height="28" rx="4" fill="#3B82F6" opacity="0.9"/><text x="211" y="728" fill="#475569" font-family="monospace" font-size="11">67 ns</text><rect x="190" y="740" width="62.2" height="28" rx="4" fill="#F97316" opacity="0.9"/><text x="258" y="762" fill="#475569" font-family="monospace" font-size="11">278 ns</text><text x="180" y="810" fill="#334155" font-family="monospace" font-size="12" text-anchor="end">FieldSuccessParallel</text><rect x="190" y="788" width="5.5" height="28" rx="4" fill="#3B82F6" opacity="0.9"/><text x="201" y="810" fill="#475569" font-family="monospace" font-size="11">24 ns</text><rect x="190" y="822" width="16.5" height="28" rx="4" fill="#F97316" opacity="0.9"/><text x="212" y="844" fill="#475569" font-family="monospace" font-size="11">74 ns</text><text x="180" y="892" fill="#334155" font-family="monospace" font-size="12" text-anchor="end">OneofParallel</text><rect x="190" y="870" width="18.5" height="28" rx="4" fill="#3B82F6" opacity="0.9"/><text x="214" y="892" fill="#475569" font-family="monospace" font-size="11">83 ns</text><rect x="190" y="904" width="23.6" height="28" rx="4" fill="#F97316" opacity="0.9"/><text x="219" y="926" fill="#475569" font-family="monospace" font-size="11">105 ns</text><text x="180" y="974" fill="#334155" font-family="monospace" font-size="12" text-anchor="end">StructComplexFailureParallel</text><rect x="190" y="952" width="381.8" height="28" rx="4" fill="#3B82F6" opacity="0.9"/><text x="577" y="974" fill="#475569" font-family="monospace" font-size="11">1708 ns</text><rect x="190" y="986" width="550.0" height="28" rx="4" fill="#F97316" opacity="0.9"/><text x="746" y="1008" fill="#475569" font-family="monospace" font-size="11">2460 ns</text><text x="180" y="1056" fill="#334155" font-family="monospace" font-size="12" text-anchor="end">StructComplexSuccessParallel</text><rect x="190" y="1034" width="88.6" height="28" rx="4" fill="#3B82F6" opacity="0.9"/><text x="284" y="1056" fill="#475569" font-family="monospace" font-size="11">396 ns</text><rect x="190" y="1068" width="173.8" height="28" rx="4" fill="#F97316" opacity="0.9"/><text x="369" y="1090" fill="#475569" font-family="monospace" font-size="11">778 ns</text><text x="180" y="1138" fill="#334155" font-family="monospace" font-size="12" text-anchor="end">StructSimpleCrossFieldFai...</text><rect x="190" y="1116" width="63.3" height="28" rx="4" fill="#3B82F6" opacity="0.9"/><text x="259" y="1138" fill="#475569" font-family="monospace" font-size="11">283 ns</text><rect x="190" y="1150" width="104.9" height="28" rx="4" fill="#F97316" opacity="0.9"/><text x="300" y="1172" fill="#475569" font-family="monospace" font-size="11">469 ns</text><text x="180" y="1220" fill="#334155" font-family="monospace" font-size="12" text-anchor="end">StructSimpleCrossFieldSuc...</text><rect x="190" y="1198" width="33.8" height="28" rx="4" fill="#3B82F6" opacity="0.9"/><text x="229" y="1220" fill="#475569" font-family="monospace" font-size="11">151 ns</text><rect x="190" y="1232" width="69.6" height="28" rx="4" fill="#F97316" opacity="0.9"/><text x="265" y="1254" fill="#475569" font-family="monospace" font-size="11">311 ns</text><text x="180" y="1302" fill="#334155" font-family="monospace" font-size="12" text-anchor="end">StructSimpleCrossStructCr...</text><rect x="190" y="1280" width="93.5" height="28" rx="4" fill="#3B82F6" opacity="0.9"/><text x="289" y="1302" fill="#475569" font-family="monospace" font-size="11">418 ns</text><rect x="190" y="1314" width="139.8" height="28" rx="4" fill="#F97316" opacity="0.9"/><text x="335" y="1336" fill="#475569" font-family="monospace" font-size="11">626 ns</text><text x="180" y="1384" fill="#334155" font-family="monospace" font-size="12" text-anchor="end">StructSimpleCrossStructCr...</text><rect x="190" y="1362" width="65.3" height="28" rx="4" fill="#3B82F6" opacity="0.9"/><text x="261" y="1384" fill="#475569" font-family="monospace" font-size="11">292 ns</text><rect x="190" y="1396" width="107.3" height="28" rx="4" fill="#F97316" opacity="0.9"/><text x="303" y="1418" fill="#475569" font-family="monospace" font-size="11">480 ns</text><text x="180" y="1466" fill="#334155" font-family="monospace" font-size="12" text-anchor="end">StructSimpleFailureParallel</text><rect x="190" y="1444" width="70.0" height="28" rx="4" fill="#3B82F6" opacity="0.9"/><text x="265" y="1466" fill="#475569" font-family="monospace" font-size="11">313 ns</text><rect x="190" y="1478" width="87.3" height="28" rx="4" fill="#F97316" opacity="0.9"/><text x="283" y="1500" fill="#475569" font-family="monospace" font-size="11">390 ns</text><text x="180" y="1548" fill="#334155" font-family="monospace" font-size="12" text-anchor="end">StructSimpleSuccessParallel</text><rect x="190" y="1526" width="27.3" height="28" rx="4" fill="#3B82F6" opacity="0.9"/><text x="223" y="1548" fill="#475569" font-family="monospace" font-size="11">122 ns</text><rect x="190" y="1560" width="39.8" height="28" rx="4" fill="#F97316" opacity="0.9"/><text x="235" y="1582" fill="#475569" font-family="monospace" font-size="11">178 ns</text><text x="180" y="1630" fill="#334155" font-family="monospace" font-size="12" text-anchor="end">VarPathParallel</text><rect x="190" y="1608" width="0.5" height="28" rx="4" fill="#3B82F6" opacity="0.9"/><text x="196" y="1630" fill="#475569" font-family="monospace" font-size="11">2 ns</text><rect x="190" y="1642" width="8.0" height="28" rx="4" fill="#F97316" opacity="0.9"/><text x="204" y="1664" fill="#475569" font-family="monospace" font-size="11">36 ns</text><text x="190" y="1750" fill="#94A3B8" font-family="system-ui,sans-serif" font-size="10">Lower is better ▸</text></svg>