<svg xmlns="http://www.w3.org/2000/svg" width="800" height="8484" viewBox="0 0 800 8484"><rect width="100%" height="100%" fill="#FFFFFF" rx="12"/><text x="190" y="30" fill="#1E293B" font-family="system-ui,-apple-system,sans-serif" font-size="16" font-weight="600">VarString vs Var Latency (ns/op) — Zero-Reflection Gain</text><rect x="520" y="14" width="14" height="14" rx="3" fill="#10B981"/><text x="538" y="26" fill="#64748B" font-family="system-ui,sans-serif" font-size="12">VarString</text><rect x="650" y="14" width="14" height="14" rx="3" fill="#8B5CF6"/><text x="668" y="26" fill="#64748B" font-family="system-ui,sans-serif" font-size="12">Var</text><text x="180" y="72" fill="#334155" font-family="monospace" font-size="12" text-anchor="end">ASCII</text><rect x="190" y="50" width="34.7" height="28" rx="4" fill="#10B981" opacity="0.9"/><text x="230" y="72" fill="#475569" font-family="monospace" font-size="11">51 ns</text><rect x="190" y="84" width="62.2" height="28" rx="4" fill="#8B5CF6" opacity="0.9"/><text x="258" y="106" fill="#475569" font-family="monospace" font-size="11">92 ns</text><text x="180" y="154" fill="#334155" font-family="monospace" font-size="12" text-anchor="end">Alpha</text><rect x="190" y="132" width="34.7" height="28" rx="4" fill="#10B981" opacity="0.9"/><text x="230" y="154" fill="#475569" font-family="monospace" font-size="11">51 ns</text><rect x="190" y="166" width="58.0" height="28" rx="4" fill="#8B5CF6" opacity="0.9"/><text x="253" y="188" fill="#475569" font-family="monospace" font-size="11">86 ns</text><text x="180" y="236" fill="#334155" font-family="monospace" font-size="12" text-anchor="end">AlphaSpace</text><rect x="190" y="214" width="35.2" height="28" rx="4" fill="#10B981" opacity="0.9"/><text x="231" y="236" fill="#475569" font-family="monospace" font-size="11">52 ns</text><rect x="190" y="248" width="59.1" height="28" rx="4" fill="#8B5CF6" opacity="0.9"/><text x="255" y="270" fill="#475569" font-family="monospace" font-size="11">87 ns</text><text x="180" y="318" fill="#334155" font-family="monospace" font-size="12" text-anchor="end">AlphaUnicode</text><rect x="190" y="296" width="37.7" height="28" rx="4" fill="#10B981" opacity="0.9"/><text x="233" y="318" fill="#475569" font-family="monospace" font-size="11">56 ns</text><rect x="190" y="330" width="61.0" height="28" rx="4" fill="#8B5CF6" opacity="0.9"/><text x="256" y="352" fill="#475569" font-family="monospace" font-size="11">90 ns</text><text x="180" y="400" fill="#334155" font-family="monospace" font-size="12" text-anchor="end">Alphanum</text><rect x="190" y="378" width="33.8" height="28" rx="4" fill="#10B981" opacity="0.9"/><text x="229" y="400" fill="#475569" font-family="monospace" font-size="11">50 ns</text><rect x="190" y="412" width="56.2" height="28" rx="4" fill="#8B5CF6" opacity="0.9"/><text x="252" y="434" fill="#475569" font-family="monospace" font-size="11">83 ns</text><text x="180" y="482" fill="#334155" font-family="monospace" font-size="12" text-anchor="end">AlphanumSpace</text><rect x="190" y="460" width="36.4" height="28" rx="4" fill="#10B981" opacity="0.9"/><text x="232" y="482" fill="#475569" font-family="monospace" font-size="11">54 ns</text><rect x="190" y="494" width="59.1" height="28" rx="4" fill="#8B5CF6" opacity="0.9"/><text x="255" y="516" fill="#475569" font-family="monospace" font-size="11">87 ns</text><text x="180" y="564" fill="#334155" font-family="monospace" font-size="12" text-anchor="end">AlphanumUnicode</text><rect x="190" y="542" width="41.4" height="28" rx="4" fill="#10B981" opacity="0.9"/><text x="237" y="564" fill="#475569" font-family="monospace" font-size="11">61 ns</text><rect x="190" y="576" width="62.4" height="28" rx="4" fill="#8B5CF6" opacity="0.9"/><text x="258" y="598" fill="#475569" font-family="monospace" font-size="11">92 ns</text><text x="180" y="646" fill="#334155" font-family="monospace" font-size="12" text-anchor="end">BCP47</text><rect x="190" y="624" width="36.9" height="28" rx="4" fill="#10B981" opacity="0.9"/><text x="232" y="646" fill="#475569" font-family="monospace" font-size="11">54 ns</text><rect x="190" y="658" width="58.1" height="28" rx="4" fill="#8B5CF6" opacity="0.9"/><text x="254" y="680" fill="#475569" font-family="monospace" font-size="11">86 ns</text><text x="180" y="728" fill="#334155" font-family="monospace" font-size="12" text-anchor="end">BIC</text><rect x="190" y="706" width="36.9" height="28" rx="4" fill="#10B981" opacity="0.9"/><text x="232" y="728" fill="#475569" font-family="monospace" font-size="11">54 ns</text><rect x="190" y="740" width="58.9" height="28" rx="4" fill="#8B5CF6" opacity="0.9"/><text x="254" y="762" fill="#475569" font-family="monospace" font-size="11">87 ns</text><text x="180" y="810" fill="#334155" font-family="monospace" font-size="12" text-anchor="end">Base32</text><rect x="190" y="788" width="86.7" height="28" rx="4" fill="#10B981" opacity="0.9"/><text x="282" y="810" fill="#475569" font-family="monospace" font-size="11">128 ns</text><rect x="190" y="822" width="115.9" height="28" rx="4" fill="#8B5CF6" opacity="0.9"/><text x="311" y="844" fill="#475569" font-family="monospace" font-size="11">171 ns</text><text x="180" y="892" fill="#334155" font-family="monospace" font-size="12" text-anchor="end">Base64</text><rect x="190" y="870" width="43.3" height="28" rx="4" fill="#10B981" opacity="0.9"/><text x="239" y="892" fill="#475569" font-family="monospace" font-size="11">64 ns</text><rect x="190" y="904" width="69.4" height="28" rx="4" fill="#8B5CF6" opacity="0.9"/><text x="265" y="926" fill="#475569" font-family="monospace" font-size="11">102 ns</text><text x="180" y="974" fill="#334155" font-family="monospace" font-size="12" text-anchor="end">Base64RawURL</text><rect x="190" y="952" width="43.6" height="28" rx="4" fill="#10B981" opacity="0.9"/><text x="239" y="974" fill="#475569" font-family="monospace" font-size="11">64 ns</text><rect x="190" y="986" width="70.7" height="28" rx="4" fill="#8B5CF6" opacity="0.9"/><text x="266" y="1008" fill="#475569" font-family="monospace" font-size="11">104 ns</text><text x="180" y="1056" fill="#334155" font-family="monospace" font-size="12" text-anchor="end">Base64URL</text><rect x="190" y="1034" width="44.3" height="28" rx="4" fill="#10B981" opacity="0.9"/><text x="240" y="1056" fill="#475569" font-family="monospace" font-size="11">65 ns</text><rect x="190" y="1068" width="71.6" height="28" rx="4" fill="#8B5CF6" opacity="0.9"/><text x="267" y="1090" fill="#475569" font-family="monospace" font-size="11">106 ns</text><text x="180" y="1138" fill="#334155" font-family="monospace" font-size="12" text-anchor="end">Boolean</text><rect x="190" y="1116" width="31.4" height="28" rx="4" fill="#10B981" opacity="0.9"/><text x="227" y="1138" fill="#475569" font-family="monospace" font-size="11">46 ns</text><rect x="190" y="1150" width="54.4" height="28" rx="4" fill="#8B5CF6" opacity="0.9"/><text x="250" y="1172" fill="#475569" font-family="monospace" font-size="11">80 ns</text><text x="180" y="1220" fill="#334155" font-family="monospace" font-size="12" text-anchor="end">BtcAddr</text><rect x="190" y="1198" width="56.0" height="28" rx="4" fill="#10B981" opacity="0.9"/><text x="252" y="1220" fill="#475569" font-family="monospace" font-size="11">83 ns</text><rect x="190" y="1232" width="80.8" height="28" rx="4" fill="#8B5CF6" opacity="0.9"/><text x="276" y="1254" fill="#475569" font-family="monospace" font-size="11">119 ns</text><text x="180" y="1302" fill="#334155" font-family="monospace" font-size="12" text-anchor="end">CIDR</text><rect x="190" y="1280" width="45.3" height="28" rx="4" fill="#10B981" opacity="0.9"/><text x="241" y="1302" fill="#475569" font-family="monospace" font-size="11">67 ns</text><rect x="190" y="1314" width="68.2" height="28" rx="4" fill="#8B5CF6" opacity="0.9"/><text x="264" y="1336" fill="#475569" font-family="monospace" font-size="11">101 ns</text><text x="180" y="1384" fill="#334155" font-family="monospace" font-size="12" text-anchor="end">CIDRv4</text><rect x="190" y="1362" width="46.2" height="28" rx="4" fill="#10B981" opacity="0.9"/><text x="242" y="1384" fill="#475569" font-family="monospace" font-size="11">68 ns</text><rect x="190" y="1396" width="71.0" height="28" rx="4" fill="#8B5CF6" opacity="0.9"/><text x="266" y="1418" fill="#475569" font-family="monospace" font-size="11">105 ns</text><text x="180" y="1466" fill="#334155" font-family="monospace" font-size="12" text-anchor="end">CIDRv6</text><rect x="190" y="1444" width="146.0" height="28" rx="4" fill="#10B981" opacity="0.9"/><text x="342" y="1466" fill="#475569" font-family="monospace" font-size="11">215 ns</text><rect x="190" y="1478" width="172.9" height="28" rx="4" fill="#8B5CF6" opacity="0.9"/><text x="368" y="1500" fill="#475569" font-family="monospace" font-size="11">255 ns</text><text x="180" y="1548" fill="#334155" font-family="monospace" font-size="12" text-anchor="end">Contains</text><rect x="190" y="1526" width="35.9" height="28" rx="4" fill="#10B981" opacity="0.9"/><text x="231" y="1548" fill="#475569" font-family="monospace" font-size="11">53 ns</text><rect x="190" y="1560" width="59.8" height="28" rx="4" fill="#8B5CF6" opacity="0.9"/><text x="255" y="1582" fill="#475569" font-family="monospace" font-size="11">88 ns</text><text x="180" y="1630" fill="#334155" font-family="monospace" font-size="12" text-anchor="end">ContainsAny</text><rect x="190" y="1608" width="39.7" height="28" rx="4" fill="#10B981" opacity="0.9"/><text x="235" y="1630" fill="#475569" font-family="monospace" font-size="11">59 ns</text><rect x="190" y="1642" width="62.3" height="28" rx="4" fill="#8B5CF6" opacity="0.9"/><text x="258" y="1664" fill="#475569" font-family="monospace" font-size="11">92 ns</text><text x="180" y="1712" fill="#334155" font-family="monospace" font-size="12" text-anchor="end">ContainsRune</text><rect x="190" y="1690" width="67.1" height="28" rx="4" fill="#10B981" opacity="0.9"/><text x="263" y="1712" fill="#475569" font-family="monospace" font-size="11">99 ns</text><rect x="190" y="1724" width="129.5" height="28" rx="4" fill="#8B5CF6" opacity="0.9"/><text x="325" y="1746" fill="#475569" font-family="monospace" font-size="11">191 ns</text><text x="180" y="1794" fill="#334155" font-family="monospace" font-size="12" text-anchor="end">CreditCard</text><rect x="190" y="1772" width="45.7" height="28" rx="4" fill="#10B981" opacity="0.9"/><text x="241" y="1794" fill="#475569" font-family="monospace" font-size="11">67 ns</text><rect x="190" y="1806" width="70.5" height="28" rx="4" fill="#8B5CF6" opacity="0.9"/><text x="266" y="1828" fill="#475569" font-family="monospace" font-size="11">104 ns</text><text x="180" y="1876" fill="#334155" font-family="monospace" font-size="12" text-anchor="end">Cron</text><rect x="190" y="1854" width="58.2" height="28" rx="4" fill="#10B981" opacity="0.9"/><text x="254" y="1876" fill="#475569" font-family="monospace" font-size="11">86 ns</text><rect x="190" y="1888" width="81.3" height="28" rx="4" fill="#8B5CF6" opacity="0.9"/><text x="277" y="1910" fill="#475569" font-family="monospace" font-size="11">120 ns</text><text x="180" y="1958" fill="#334155" font-family="monospace" font-size="12" text-anchor="end">DNSRFC1035Label</text><rect x="190" y="1936" width="168.2" height="28" rx="4" fill="#10B981" opacity="0.9"/><text x="364" y="1958" fill="#475569" font-family="monospace" font-size="11">248 ns</text><rect x="190" y="1970" width="200.8" height="28" rx="4" fill="#8B5CF6" opacity="0.9"/><text x="396" y="1992" fill="#475569" font-family="monospace" font-size="11">296 ns</text><text x="180" y="2040" fill="#334155" font-family="monospace" font-size="12" text-anchor="end">DataURI</text><rect x="190" y="2018" width="45.7" height="28" rx="4" fill="#10B981" opacity="0.9"/><text x="241" y="2040" fill="#475569" font-family="monospace" font-size="11">67 ns</text><rect x="190" y="2052" width="68.7" height="28" rx="4" fill="#8B5CF6" opacity="0.9"/><text x="264" y="2074" fill="#475569" font-family="monospace" font-size="11">101 ns</text><text x="180" y="2122" fill="#334155" font-family="monospace" font-size="12" text-anchor="end">Datetime</text><rect x="190" y="2100" width="53.2" height="28" rx="4" fill="#10B981" opacity="0.9"/><text x="249" y="2122" fill="#475569" font-family="monospace" font-size="11">78 ns</text><rect x="190" y="2134" width="80.7" height="28" rx="4" fill="#8B5CF6" opacity="0.9"/><text x="276" y="2156" fill="#475569" font-family="monospace" font-size="11">119 ns</text><text x="180" y="2204" fill="#334155" font-family="monospace" font-size="12" text-anchor="end">Dir</text><rect x="190" y="2182" width="484.5" height="28" rx="4" fill="#10B981" opacity="0.9"/><text x="680" y="2204" fill="#475569" font-family="monospace" font-size="11">715 ns</text><rect x="190" y="2216" width="550.0" height="28" rx="4" fill="#8B5CF6" opacity="0.9"/><text x="746" y="2238" fill="#475569" font-family="monospace" font-size="11">811 ns</text><text x="180" y="2286" fill="#334155" font-family="monospace" font-size="12" text-anchor="end">DirPath</text><rect x="190" y="2264" width="50.8" height="28" rx="4" fill="#10B981" opacity="0.9"/><text x="246" y="2286" fill="#475569" font-family="monospace" font-size="11">75 ns</text><rect x="190" y="2298" width="71.8" height="28" rx="4" fill="#8B5CF6" opacity="0.9"/><text x="267" y="2320" fill="#475569" font-family="monospace" font-size="11">106 ns</text><text x="180" y="2368" fill="#334155" font-family="monospace" font-size="12" text-anchor="end">E164</text><rect x="190" y="2346" width="33.0" height="28" rx="4" fill="#10B981" opacity="0.9"/><text x="228" y="2368" fill="#475569" font-family="monospace" font-size="11">49 ns</text><rect x="190" y="2380" width="56.0" height="28" rx="4" fill="#8B5CF6" opacity="0.9"/><text x="251" y="2402" fill="#475569" font-family="monospace" font-size="11">83 ns</text><text x="180" y="2450" fill="#334155" font-family="monospace" font-size="12" text-anchor="end">Email</text><rect x="190" y="2428" width="71.5" height="28" rx="4" fill="#10B981" opacity="0.9"/><text x="267" y="2450" fill="#475569" font-family="monospace" font-size="11">106 ns</text><rect x="190" y="2462" width="100.3" height="28" rx="4" fill="#8B5CF6" opacity="0.9"/><text x="296" y="2484" fill="#475569" font-family="monospace" font-size="11">148 ns</text><text x="180" y="2532" fill="#334155" font-family="monospace" font-size="12" text-anchor="end">EndsNotWith</text><rect x="190" y="2510" width="31.6" height="28" rx="4" fill="#10B981" opacity="0.9"/><text x="227" y="2532" fill="#475569" font-family="monospace" font-size="11">47 ns</text><rect x="190" y="2544" width="55.7" height="28" rx="4" fill="#8B5CF6" opacity="0.9"/><text x="251" y="2566" fill="#475569" font-family="monospace" font-size="11">82 ns</text><text x="180" y="2614" fill="#334155" font-family="monospace" font-size="12" text-anchor="end">EndsWith</text><rect x="190" y="2592" width="31.3" height="28" rx="4" fill="#10B981" opacity="0.9"/><text x="227" y="2614" fill="#475569" font-family="monospace" font-size="11">46 ns</text><rect x="190" y="2626" width="23.3" height="28" rx="4" fill="#8B5CF6" opacity="0.9"/><text x="219" y="2648" fill="#475569" font-family="monospace" font-size="11">34 ns</text><text x="180" y="2696" fill="#334155" font-family="monospace" font-size="12" text-anchor="end">Eq</text><rect x="190" y="2674" width="29.8" height="28" rx="4" fill="#10B981" opacity="0.9"/><text x="225" y="2696" fill="#475569" font-family="monospace" font-size="11">44 ns</text><rect x="190" y="2708" width="52.3" height="28" rx="4" fill="#8B5CF6" opacity="0.9"/><text x="248" y="2730" fill="#475569" font-family="monospace" font-size="11">77 ns</text><text x="180" y="2778" fill="#334155" font-family="monospace" font-size="12" text-anchor="end">EqIgnoreCase</text><rect x="190" y="2756" width="35.9" height="28" rx="4" fill="#10B981" opacity="0.9"/><text x="231" y="2778" fill="#475569" font-family="monospace" font-size="11">53 ns</text><rect x="190" y="2790" width="58.3" height="28" rx="4" fill="#8B5CF6" opacity="0.9"/><text x="254" y="2812" fill="#475569" font-family="monospace" font-size="11">86 ns</text><text x="180" y="2860" fill="#334155" font-family="monospace" font-size="12" text-anchor="end">EthAddr</text><rect x="190" y="2838" width="50.5" height="28" rx="4" fill="#10B981" opacity="0.9"/><text x="246" y="2860" fill="#475569" font-family="monospace" font-size="11">75 ns</text><rect x="190" y="2872" width="72.7" height="28" rx="4" fill="#8B5CF6" opacity="0.9"/><text x="268" y="2894" fill="#475569" font-family="monospace" font-size="11">107 ns</text><text x="180" y="2942" fill="#334155" font-family="monospace" font-size="12" text-anchor="end">Excludes</text><rect x="190" y="2920" width="34.2" height="28" rx="4" fill="#10B981" opacity="0.9"/><text x="230" y="2942" fill="#475569" font-family="monospace" font-size="11">50 ns</text><rect x="190" y="2954" width="57.5" height="28" rx="4" fill="#8B5CF6" opacity="0.9"/><text x="253" y="2976" fill="#475569" font-family="monospace" font-size="11">85 ns</text><text x="180" y="3024" fill="#334155" font-family="monospace" font-size="12" text-anchor="end">ExcludesAll</text><rect x="190" y="3002" width="48.1" height="28" rx="4" fill="#10B981" opacity="0.9"/><text x="244" y="3024" fill="#475569" font-family="monospace" font-size="11">71 ns</text><rect x="190" y="3036" width="71.2" height="28" rx="4" fill="#8B5CF6" opacity="0.9"/><text x="267" y="3058" fill="#475569" font-family="monospace" font-size="11">105 ns</text><text x="180" y="3106" fill="#334155" font-family="monospace" font-size="12" text-anchor="end">ExcludesRune</text><rect x="190" y="3084" width="39.6" height="28" rx="4" fill="#10B981" opacity="0.9"/><text x="235" y="3106" fill="#475569" font-family="monospace" font-size="11">58 ns</text><rect x="190" y="3118" width="62.3" height="28" rx="4" fill="#8B5CF6" opacity="0.9"/><text x="258" y="3140" fill="#475569" font-family="monospace" font-size="11">92 ns</text><text x="180" y="3188" fill="#334155" font-family="monospace" font-size="12" text-anchor="end">FQDN</text><rect x="190" y="3166" width="44.9" height="28" rx="4" fill="#10B981" opacity="0.9"/><text x="240" y="3188" fill="#475569" font-family="monospace" font-size="11">66 ns</text><rect x="190" y="3200" width="67.2" height="28" rx="4" fill="#8B5CF6" opacity="0.9"/><text x="263" y="3222" fill="#475569" font-family="monospace" font-size="11">99 ns</text><text x="180" y="3270" fill="#334155" font-family="monospace" font-size="12" text-anchor="end">File</text><rect x="190" y="3248" width="487.0" height="28" rx="4" fill="#10B981" opacity="0.9"/><text x="682" y="3270" fill="#475569" font-family="monospace" font-size="11">718 ns</text><rect x="190" y="3282" width="548.1" height="28" rx="4" fill="#8B5CF6" opacity="0.9"/><text x="744" y="3304" fill="#475569" font-family="monospace" font-size="11">809 ns</text><text x="180" y="3352" fill="#334155" font-family="monospace" font-size="12" text-anchor="end">FilePath</text><rect x="190" y="3330" width="53.2" height="28" rx="4" fill="#10B981" opacity="0.9"/><text x="249" y="3352" fill="#475569" font-family="monospace" font-size="11">78 ns</text><rect x="190" y="3364" width="77.5" height="28" rx="4" fill="#8B5CF6" opacity="0.9"/><text x="273" y="3386" fill="#475569" font-family="monospace" font-size="11">114 ns</text><text x="180" y="3434" fill="#334155" font-family="monospace" font-size="12" text-anchor="end">Gt</text><rect x="190" y="3412" width="44.3" height="28" rx="4" fill="#10B981" opacity="0.9"/><text x="240" y="3434" fill="#475569" font-family="monospace" font-size="11">65 ns</text><rect x="190" y="3446" width="100.2" height="28" rx="4" fill="#8B5CF6" opacity="0.9"/><text x="296" y="3468" fill="#475569" font-family="monospace" font-size="11">148 ns</text><text x="180" y="3516" fill="#334155" font-family="monospace" font-size="12" text-anchor="end">Gte</text><rect x="190" y="3494" width="45.7" height="28" rx="4" fill="#10B981" opacity="0.9"/><text x="241" y="3516" fill="#475569" font-family="monospace" font-size="11">67 ns</text><rect x="190" y="3528" width="101.7" height="28" rx="4" fill="#8B5CF6" opacity="0.9"/><text x="297" y="3550" fill="#475569" font-family="monospace" font-size="11">150 ns</text><text x="180" y="3598" fill="#334155" font-family="monospace" font-size="12" text-anchor="end">HSL</text><rect x="190" y="3576" width="51.9" height="28" rx="4" fill="#10B981" opacity="0.9"/><text x="247" y="3598" fill="#475569" font-family="monospace" font-size="11">77 ns</text><rect x="190" y="3610" width="77.7" height="28" rx="4" fill="#8B5CF6" opacity="0.9"/><text x="273" y="3632" fill="#475569" font-family="monospace" font-size="11">115 ns</text><text x="180" y="3680" fill="#334155" font-family="monospace" font-size="12" text-anchor="end">HSLA</text><rect x="190" y="3658" width="55.1" height="28" rx="4" fill="#10B981" opacity="0.9"/><text x="251" y="3680" fill="#475569" font-family="monospace" font-size="11">81 ns</text><rect x="190" y="3692" width="80.3" height="28" rx="4" fill="#8B5CF6" opacity="0.9"/><text x="276" y="3714" fill="#475569" font-family="monospace" font-size="11">119 ns</text><text x="180" y="3762" fill="#334155" font-family="monospace" font-size="12" text-anchor="end">HTML</text><rect x="190" y="3740" width="37.3" height="28" rx="4" fill="#10B981" opacity="0.9"/><text x="233" y="3762" fill="#475569" font-family="monospace" font-size="11">55 ns</text><rect x="190" y="3774" width="59.6" height="28" rx="4" fill="#8B5CF6" opacity="0.9"/><text x="255" y="3796" fill="#475569" font-family="monospace" font-size="11">88 ns</text><text x="180" y="3844" fill="#334155" font-family="monospace" font-size="12" text-anchor="end">HTMLEncoded</text><rect x="190" y="3822" width="30.8" height="28" rx="4" fill="#10B981" opacity="0.9"/><text x="226" y="3844" fill="#475569" font-family="monospace" font-size="11">46 ns</text><rect x="190" y="3856" width="52.8" height="28" rx="4" fill="#8B5CF6" opacity="0.9"/><text x="248" y="3878" fill="#475569" font-family="monospace" font-size="11">78 ns</text><text x="180" y="3926" fill="#334155" font-family="monospace" font-size="12" text-anchor="end">HTTPSURL</text><rect x="190" y="3904" width="46.2" height="28" rx="4" fill="#10B981" opacity="0.9"/><text x="242" y="3926" fill="#475569" font-family="monospace" font-size="11">68 ns</text><rect x="190" y="3938" width="68.8" height="28" rx="4" fill="#8B5CF6" opacity="0.9"/><text x="264" y="3960" fill="#475569" font-family="monospace" font-size="11">102 ns</text><text x="180" y="4008" fill="#334155" font-family="monospace" font-size="12" text-anchor="end">HTTPURL</text><rect x="190" y="3986" width="45.4" height="28" rx="4" fill="#10B981" opacity="0.9"/><text x="241" y="4008" fill="#475569" font-family="monospace" font-size="11">67 ns</text><rect x="190" y="4020" width="69.7" height="28" rx="4" fill="#8B5CF6" opacity="0.9"/><text x="265" y="4042" fill="#475569" font-family="monospace" font-size="11">103 ns</text><text x="180" y="4090" fill="#334155" font-family="monospace" font-size="12" text-anchor="end">HexColor</text><rect x="190" y="4068" width="33.5" height="28" rx="4" fill="#10B981" opacity="0.9"/><text x="229" y="4090" fill="#475569" font-family="monospace" font-size="11">49 ns</text><rect x="190" y="4102" width="55.4" height="28" rx="4" fill="#8B5CF6" opacity="0.9"/><text x="251" y="4124" fill="#475569" font-family="monospace" font-size="11">82 ns</text><text x="180" y="4172" fill="#334155" font-family="monospace" font-size="12" text-anchor="end">Hexadecimal</text><rect x="190" y="4150" width="35.0" height="28" rx="4" fill="#10B981" opacity="0.9"/><text x="230" y="4172" fill="#475569" font-family="monospace" font-size="11">52 ns</text><rect x="190" y="4184" width="58.4" height="28" rx="4" fill="#8B5CF6" opacity="0.9"/><text x="254" y="4206" fill="#475569" font-family="monospace" font-size="11">86 ns</text><text x="180" y="4254" fill="#334155" font-family="monospace" font-size="12" text-anchor="end">Hostname</text><rect x="190" y="4232" width="43.9" height="28" rx="4" fill="#10B981" opacity="0.9"/><text x="239" y="4254" fill="#475569" font-family="monospace" font-size="11">65 ns</text><rect x="190" y="4266" width="66.3" height="28" rx="4" fill="#8B5CF6" opacity="0.9"/><text x="262" y="4288" fill="#475569" font-family="monospace" font-size="11">98 ns</text><text x="180" y="4336" fill="#334155" font-family="monospace" font-size="12" text-anchor="end">HostnamePort</text><rect x="190" y="4314" width="44.7" height="28" rx="4" fill="#10B981" opacity="0.9"/><text x="240" y="4336" fill="#475569" font-family="monospace" font-size="11">66 ns</text><rect x="190" y="4348" width="66.5" height="28" rx="4" fill="#8B5CF6" opacity="0.9"/><text x="262" y="4370" fill="#475569" font-family="monospace" font-size="11">98 ns</text><text x="180" y="4418" fill="#334155" font-family="monospace" font-size="12" text-anchor="end">IP</text><rect x="190" y="4396" width="40.1" height="28" rx="4" fill="#10B981" opacity="0.9"/><text x="236" y="4418" fill="#475569" font-family="monospace" font-size="11">59 ns</text><rect x="190" y="4430" width="66.1" height="28" rx="4" fill="#8B5CF6" opacity="0.9"/><text x="262" y="4452" fill="#475569" font-family="monospace" font-size="11">97 ns</text><text x="180" y="4500" fill="#334155" font-family="monospace" font-size="12" text-anchor="end">IPv4</text><rect x="190" y="4478" width="40.8" height="28" rx="4" fill="#10B981" opacity="0.9"/><text x="236" y="4500" fill="#475569" font-family="monospace" font-size="11">60 ns</text><rect x="190" y="4512" width="64.3" height="28" rx="4" fill="#8B5CF6" opacity="0.9"/><text x="260" y="4534" fill="#475569" font-family="monospace" font-size="11">95 ns</text><text x="180" y="4582" fill="#334155" font-family="monospace" font-size="12" text-anchor="end">IPv6</text><rect x="190" y="4560" width="31.9" height="28" rx="4" fill="#10B981" opacity="0.9"/><text x="227" y="4582" fill="#475569" font-family="monospace" font-size="11">47 ns</text><rect x="190" y="4594" width="54.2" height="28" rx="4" fill="#8B5CF6" opacity="0.9"/><text x="250" y="4616" fill="#475569" font-family="monospace" font-size="11">80 ns</text><text x="180" y="4664" fill="#334155" font-family="monospace" font-size="12" text-anchor="end">ISBN10</text><rect x="190" y="4642" width="39.2" height="28" rx="4" fill="#10B981" opacity="0.9"/><text x="235" y="4664" fill="#475569" font-family="monospace" font-size="11">58 ns</text><rect x="190" y="4676" width="62.9" height="28" rx="4" fill="#8B5CF6" opacity="0.9"/><text x="258" y="4698" fill="#475569" font-family="monospace" font-size="11">93 ns</text><text x="180" y="4746" fill="#334155" font-family="monospace" font-size="12" text-anchor="end">ISBN13</text><rect x="190" y="4724" width="75.8" height="28" rx="4" fill="#10B981" opacity="0.9"/><text x="271" y="4746" fill="#475569" font-family="monospace" font-size="11">112 ns</text><rect x="190" y="4758" width="136.2" height="28" rx="4" fill="#8B5CF6" opacity="0.9"/><text x="332" y="4780" fill="#475569" font-family="monospace" font-size="11">201 ns</text><text x="180" y="4828" fill="#334155" font-family="monospace" font-size="12" text-anchor="end">ISSN</text><rect x="190" y="4806" width="66.3" height="28" rx="4" fill="#10B981" opacity="0.9"/><text x="262" y="4828" fill="#475569" font-family="monospace" font-size="11">98 ns</text><rect x="190" y="4840" width="125.9" height="28" rx="4" fill="#8B5CF6" opacity="0.9"/><text x="321" y="4862" fill="#475569" font-family="monospace" font-size="11">186 ns</text><text x="180" y="4910" fill="#334155" font-family="monospace" font-size="12" text-anchor="end">IsDefault</text><rect x="190" y="4888" width="30.2" height="28" rx="4" fill="#10B981" opacity="0.9"/><text x="226" y="4910" fill="#475569" font-family="monospace" font-size="11">45 ns</text><rect x="190" y="4922" width="36.1" height="28" rx="4" fill="#8B5CF6" opacity="0.9"/><text x="232" y="4944" fill="#475569" font-family="monospace" font-size="11">53 ns</text><text x="180" y="4992" fill="#334155" font-family="monospace" font-size="12" text-anchor="end">JSON</text><rect x="190" y="4970" width="50.3" height="28" rx="4" fill="#10B981" opacity="0.9"/><text x="246" y="4992" fill="#475569" font-family="monospace" font-size="11">74 ns</text><rect x="190" y="5004" width="79.1" height="28" rx="4" fill="#8B5CF6" opacity="0.9"/><text x="275" y="5026" fill="#475569" font-family="monospace" font-size="11">117 ns</text><text x="180" y="5074" fill="#334155" font-family="monospace" font-size="12" text-anchor="end">Latitude</text><rect x="190" y="5052" width="52.0" height="28" rx="4" fill="#10B981" opacity="0.9"/><text x="247" y="5074" fill="#475569" font-family="monospace" font-size="11">77 ns</text><rect x="190" y="5086" width="81.9" height="28" rx="4" fill="#8B5CF6" opacity="0.9"/><text x="277" y="5108" fill="#475569" font-family="monospace" font-size="11">121 ns</text><text x="180" y="5156" fill="#334155" font-family="monospace" font-size="12" text-anchor="end">Len</text><rect x="190" y="5134" width="21.9" height="28" rx="4" fill="#10B981" opacity="0.9"/><text x="217" y="5156" fill="#475569" font-family="monospace" font-size="11">32 ns</text><rect x="190" y="5168" width="44.7" height="28" rx="4" fill="#8B5CF6" opacity="0.9"/><text x="240" y="5190" fill="#475569" font-family="monospace" font-size="11">66 ns</text><text x="180" y="5238" fill="#334155" font-family="monospace" font-size="12" text-anchor="end">Longitude</text><rect x="190" y="5216" width="53.2" height="28" rx="4" fill="#10B981" opacity="0.9"/><text x="249" y="5238" fill="#475569" font-family="monospace" font-size="11">78 ns</text><rect x="190" y="5250" width="81.4" height="28" rx="4" fill="#8B5CF6" opacity="0.9"/><text x="277" y="5272" fill="#475569" font-family="monospace" font-size="11">120 ns</text><text x="180" y="5320" fill="#334155" font-family="monospace" font-size="12" text-anchor="end">Lowercase</text><rect x="190" y="5298" width="32.9" height="28" rx="4" fill="#10B981" opacity="0.9"/><text x="228" y="5320" fill="#475569" font-family="monospace" font-size="11">48 ns</text><rect x="190" y="5332" width="56.6" height="28" rx="4" fill="#8B5CF6" opacity="0.9"/><text x="252" y="5354" fill="#475569" font-family="monospace" font-size="11">84 ns</text><text x="180" y="5402" fill="#334155" font-family="monospace" font-size="12" text-anchor="end">Lt</text><rect x="190" y="5380" width="21.8" height="28" rx="4" fill="#10B981" opacity="0.9"/><text x="217" y="5402" fill="#475569" font-family="monospace" font-size="11">32 ns</text><rect x="190" y="5414" width="43.1" height="28" rx="4" fill="#8B5CF6" opacity="0.9"/><text x="239" y="5436" fill="#475569" font-family="monospace" font-size="11">64 ns</text><text x="180" y="5484" fill="#334155" font-family="monospace" font-size="12" text-anchor="end">Lte</text><rect x="190" y="5462" width="24.7" height="28" rx="4" fill="#10B981" opacity="0.9"/><text x="220" y="5484" fill="#475569" font-family="monospace" font-size="11">37 ns</text><rect x="190" y="5496" width="46.4" height="28" rx="4" fill="#8B5CF6" opacity="0.9"/><text x="242" y="5518" fill="#475569" font-family="monospace" font-size="11">68 ns</text><text x="180" y="5566" fill="#334155" font-family="monospace" font-size="12" text-anchor="end">LuhnChecksum</text><rect x="190" y="5544" width="48.2" height="28" rx="4" fill="#10B981" opacity="0.9"/><text x="244" y="5566" fill="#475569" font-family="monospace" font-size="11">71 ns</text><rect x="190" y="5578" width="69.6" height="28" rx="4" fill="#8B5CF6" opacity="0.9"/><text x="265" y="5600" fill="#475569" font-family="monospace" font-size="11">103 ns</text><text x="180" y="5648" fill="#334155" font-family="monospace" font-size="12" text-anchor="end">MAC</text><rect x="190" y="5626" width="46.5" height="28" rx="4" fill="#10B981" opacity="0.9"/><text x="242" y="5648" fill="#475569" font-family="monospace" font-size="11">69 ns</text><rect x="190" y="5660" width="69.3" height="28" rx="4" fill="#8B5CF6" opacity="0.9"/><text x="265" y="5682" fill="#475569" font-family="monospace" font-size="11">102 ns</text><text x="180" y="5730" fill="#334155" font-family="monospace" font-size="12" text-anchor="end">Max</text><rect x="190" y="5708" width="23.1" height="28" rx="4" fill="#10B981" opacity="0.9"/><text x="219" y="5730" fill="#475569" font-family="monospace" font-size="11">34 ns</text><rect x="190" y="5742" width="45.8" height="28" rx="4" fill="#8B5CF6" opacity="0.9"/><text x="241" y="5764" fill="#475569" font-family="monospace" font-size="11">68 ns</text><text x="180" y="5812" fill="#334155" font-family="monospace" font-size="12" text-anchor="end">Min</text><rect x="190" y="5790" width="22.2" height="28" rx="4" fill="#10B981" opacity="0.9"/><text x="218" y="5812" fill="#475569" font-family="monospace" font-size="11">33 ns</text><rect x="190" y="5824" width="44.4" height="28" rx="4" fill="#8B5CF6" opacity="0.9"/><text x="240" y="5846" fill="#475569" font-family="monospace" font-size="11">66 ns</text><text x="180" y="5894" fill="#334155" font-family="monospace" font-size="12" text-anchor="end">MongoDB</text><rect x="190" y="5872" width="193.6" height="28" rx="4" fill="#10B981" opacity="0.9"/><text x="389" y="5894" fill="#475569" font-family="monospace" font-size="11">286 ns</text><rect x="190" y="5906" width="219.6" height="28" rx="4" fill="#8B5CF6" opacity="0.9"/><text x="415" y="5928" fill="#475569" font-family="monospace" font-size="11">324 ns</text><text x="180" y="5976" fill="#334155" font-family="monospace" font-size="12" text-anchor="end">MultiRule</text><rect x="190" y="5954" width="53.9" height="28" rx="4" fill="#10B981" opacity="0.9"/><text x="249" y="5976" fill="#475569" font-family="monospace" font-size="11">80 ns</text><rect x="190" y="5988" width="84.4" height="28" rx="4" fill="#8B5CF6" opacity="0.9"/><text x="280" y="6010" fill="#475569" font-family="monospace" font-size="11">124 ns</text><text x="180" y="6058" fill="#334155" font-family="monospace" font-size="12" text-anchor="end">Multibyte</text><rect x="190" y="6036" width="40.8" height="28" rx="4" fill="#10B981" opacity="0.9"/><text x="236" y="6058" fill="#475569" font-family="monospace" font-size="11">60 ns</text><rect x="190" y="6070" width="64.9" height="28" rx="4" fill="#8B5CF6" opacity="0.9"/><text x="260" y="6092" fill="#475569" font-family="monospace" font-size="11">96 ns</text><text x="180" y="6140" fill="#334155" font-family="monospace" font-size="12" text-anchor="end">Ne</text><rect x="190" y="6118" width="30.2" height="28" rx="4" fill="#10B981" opacity="0.9"/><text x="226" y="6140" fill="#475569" font-family="monospace" font-size="11">45 ns</text><rect x="190" y="6152" width="52.6" height="28" rx="4" fill="#8B5CF6" opacity="0.9"/><text x="248" y="6174" fill="#475569" font-family="monospace" font-size="11">78 ns</text><text x="180" y="6222" fill="#334155" font-family="monospace" font-size="12" text-anchor="end">NeIgnoreCase</text><rect x="190" y="6200" width="38.1" height="28" rx="4" fill="#10B981" opacity="0.9"/><text x="234" y="6222" fill="#475569" font-family="monospace" font-size="11">56 ns</text><rect x="190" y="6234" width="60.8" height="28" rx="4" fill="#8B5CF6" opacity="0.9"/><text x="256" y="6256" fill="#475569" font-family="monospace" font-size="11">90 ns</text><text x="180" y="6304" fill="#334155" font-family="monospace" font-size="12" text-anchor="end">Noneof</text><rect x="190" y="6282" width="29.8" height="28" rx="4" fill="#10B981" opacity="0.9"/><text x="225" y="6304" fill="#475569" font-family="monospace" font-size="11">44 ns</text><rect x="190" y="6316" width="52.4" height="28" rx="4" fill="#8B5CF6" opacity="0.9"/><text x="248" y="6338" fill="#475569" font-family="monospace" font-size="11">77 ns</text><text x="180" y="6386" fill="#334155" font-family="monospace" font-size="12" text-anchor="end">Noneofci</text><rect x="190" y="6364" width="34.5" height="28" rx="4" fill="#10B981" opacity="0.9"/><text x="230" y="6386" fill="#475569" font-family="monospace" font-size="11">51 ns</text><rect x="190" y="6398" width="59.9" height="28" rx="4" fill="#8B5CF6" opacity="0.9"/><text x="255" y="6420" fill="#475569" font-family="monospace" font-size="11">88 ns</text><text x="180" y="6468" fill="#334155" font-family="monospace" font-size="12" text-anchor="end">Number</text><rect x="190" y="6446" width="46.3" height="28" rx="4" fill="#10B981" opacity="0.9"/><text x="242" y="6468" fill="#475569" font-family="monospace" font-size="11">68 ns</text><rect x="190" y="6480" width="72.6" height="28" rx="4" fill="#8B5CF6" opacity="0.9"/><text x="268" y="6502" fill="#475569" font-family="monospace" font-size="11">107 ns</text><text x="180" y="6550" fill="#334155" font-family="monospace" font-size="12" text-anchor="end">Numeric</text><rect x="190" y="6528" width="49.9" height="28" rx="4" fill="#10B981" opacity="0.9"/><text x="245" y="6550" fill="#475569" font-family="monospace" font-size="11">74 ns</text><rect x="190" y="6562" width="75.3" height="28" rx="4" fill="#8B5CF6" opacity="0.9"/><text x="271" y="6584" fill="#475569" font-family="monospace" font-size="11">111 ns</text><text x="180" y="6632" fill="#334155" font-family="monospace" font-size="12" text-anchor="end">Oneof</text><rect x="190" y="6610" width="32.1" height="28" rx="4" fill="#10B981" opacity="0.9"/><text x="228" y="6632" fill="#475569" font-family="monospace" font-size="11">47 ns</text><rect x="190" y="6644" width="56.4" height="28" rx="4" fill="#8B5CF6" opacity="0.9"/><text x="252" y="6666" fill="#475569" font-family="monospace" font-size="11">83 ns</text><text x="180" y="6714" fill="#334155" font-family="monospace" font-size="12" text-anchor="end">Oneofci</text><rect x="190" y="6692" width="36.2" height="28" rx="4" fill="#10B981" opacity="0.9"/><text x="232" y="6714" fill="#475569" font-family="monospace" font-size="11">53 ns</text><rect x="190" y="6726" width="57.6" height="28" rx="4" fill="#8B5CF6" opacity="0.9"/><text x="253" y="6748" fill="#475569" font-family="monospace" font-size="11">85 ns</text><text x="180" y="6796" fill="#334155" font-family="monospace" font-size="12" text-anchor="end">Path</text><rect x="190" y="6774" width="29.4" height="28" rx="4" fill="#10B981" opacity="0.9"/><text x="225" y="6796" fill="#475569" font-family="monospace" font-size="11">43 ns</text><rect x="190" y="6808" width="2.6" height="28" rx="4" fill="#8B5CF6" opacity="0.9"/><text x="198" y="6830" fill="#475569" font-family="monospace" font-size="11">4 ns</text><text x="180" y="6878" fill="#334155" font-family="monospace" font-size="12" text-anchor="end">PathParallel</text><rect x="190" y="6856" width="17.1" height="28" rx="4" fill="#10B981" opacity="0.9"/><text x="213" y="6878" fill="#475569" font-family="monospace" font-size="11">25 ns</text><rect x="190" y="6890" width="1.6" height="28" rx="4" fill="#8B5CF6" opacity="0.9"/><text x="197" y="6912" fill="#475569" font-family="monospace" font-size="11">2 ns</text><text x="180" y="6960" fill="#334155" font-family="monospace" font-size="12" text-anchor="end">Port</text><rect x="190" y="6938" width="35.2" height="28" rx="4" fill="#10B981" opacity="0.9"/><text x="231" y="6960" fill="#475569" font-family="monospace" font-size="11">52 ns</text><rect x="190" y="6972" width="57.6" height="28" rx="4" fill="#8B5CF6" opacity="0.9"/><text x="253" y="6994" fill="#475569" font-family="monospace" font-size="11">85 ns</text><text x="180" y="7042" fill="#334155" font-family="monospace" font-size="12" text-anchor="end">PrintASCII</text><rect x="190" y="7020" width="36.4" height="28" rx="4" fill="#10B981" opacity="0.9"/><text x="232" y="7042" fill="#475569" font-family="monospace" font-size="11">54 ns</text><rect x="190" y="7054" width="61.4" height="28" rx="4" fill="#8B5CF6" opacity="0.9"/><text x="257" y="7076" fill="#475569" font-family="monospace" font-size="11">91 ns</text><text x="180" y="7124" fill="#334155" font-family="monospace" font-size="12" text-anchor="end">RGB</text><rect x="190" y="7102" width="54.5" height="28" rx="4" fill="#10B981" opacity="0.9"/><text x="250" y="7124" fill="#475569" font-family="monospace" font-size="11">80 ns</text><rect x="190" y="7136" width="77.5" height="28" rx="4" fill="#8B5CF6" opacity="0.9"/><text x="273" y="7158" fill="#475569" font-family="monospace" font-size="11">114 ns</text><text x="180" y="7206" fill="#334155" font-family="monospace" font-size="12" text-anchor="end">RGBA</text><rect x="190" y="7184" width="52.8" height="28" rx="4" fill="#10B981" opacity="0.9"/><text x="248" y="7206" fill="#475569" font-family="monospace" font-size="11">78 ns</text><rect x="190" y="7218" width="78.9" height="28" rx="4" fill="#8B5CF6" opacity="0.9"/><text x="274" y="7240" fill="#475569" font-family="monospace" font-size="11">116 ns</text><text x="180" y="7288" fill="#334155" font-family="monospace" font-size="12" text-anchor="end">Required</text><rect x="190" y="7266" width="30.6" height="28" rx="4" fill="#10B981" opacity="0.9"/><text x="226" y="7288" fill="#475569" font-family="monospace" font-size="11">45 ns</text><rect x="190" y="7300" width="17.2" height="28" rx="4" fill="#8B5CF6" opacity="0.9"/><text x="213" y="7322" fill="#475569" font-family="monospace" font-size="11">25 ns</text><text x="180" y="7370" fill="#334155" font-family="monospace" font-size="12" text-anchor="end">Semver</text><rect x="190" y="7348" width="62.7" height="28" rx="4" fill="#10B981" opacity="0.9"/><text x="258" y="7370" fill="#475569" font-family="monospace" font-size="11">93 ns</text><rect x="190" y="7382" width="90.9" height="28" rx="4" fill="#8B5CF6" opacity="0.9"/><text x="286" y="7404" fill="#475569" font-family="monospace" font-size="11">134 ns</text><text x="180" y="7452" fill="#334155" font-family="monospace" font-size="12" text-anchor="end">StartsNotWith</text><rect x="190" y="7430" width="35.6" height="28" rx="4" fill="#10B981" opacity="0.9"/><text x="231" y="7452" fill="#475569" font-family="monospace" font-size="11">53 ns</text><rect x="190" y="7464" width="57.8" height="28" rx="4" fill="#8B5CF6" opacity="0.9"/><text x="253" y="7486" fill="#475569" font-family="monospace" font-size="11">85 ns</text><text x="180" y="7534" fill="#334155" font-family="monospace" font-size="12" text-anchor="end">StartsWith</text><rect x="190" y="7512" width="33.4" height="28" rx="4" fill="#10B981" opacity="0.9"/><text x="229" y="7534" fill="#475569" font-family="monospace" font-size="11">49 ns</text><rect x="190" y="7546" width="58.6" height="28" rx="4" fill="#8B5CF6" opacity="0.9"/><text x="254" y="7568" fill="#475569" font-family="monospace" font-size="11">87 ns</text><text x="180" y="7616" fill="#334155" font-family="monospace" font-size="12" text-anchor="end">Timezone</text><rect x="190" y="7594" width="41.9" height="28" rx="4" fill="#10B981" opacity="0.9"/><text x="237" y="7616" fill="#475569" font-family="monospace" font-size="11">62 ns</text><rect x="190" y="7628" width="63.8" height="28" rx="4" fill="#8B5CF6" opacity="0.9"/><text x="259" y="7650" fill="#475569" font-family="monospace" font-size="11">94 ns</text><text x="180" y="7698" fill="#334155" font-family="monospace" font-size="12" text-anchor="end">URI</text><rect x="190" y="7676" width="36.5" height="28" rx="4" fill="#10B981" opacity="0.9"/><text x="232" y="7698" fill="#475569" font-family="monospace" font-size="11">54 ns</text><rect x="190" y="7710" width="62.3" height="28" rx="4" fill="#8B5CF6" opacity="0.9"/><text x="258" y="7732" fill="#475569" font-family="monospace" font-size="11">92 ns</text><text x="180" y="7780" fill="#334155" font-family="monospace" font-size="12" text-anchor="end">URL</text><rect x="190" y="7758" width="60.7" height="28" rx="4" fill="#10B981" opacity="0.9"/><text x="256" y="7780" fill="#475569" font-family="monospace" font-size="11">90 ns</text><rect x="190" y="7792" width="88.9" height="28" rx="4" fill="#8B5CF6" opacity="0.9"/><text x="284" y="7814" fill="#475569" font-family="monospace" font-size="11">131 ns</text><text x="180" y="7862" fill="#334155" font-family="monospace" font-size="12" text-anchor="end">URLEncoded</text><rect x="190" y="7840" width="36.9" height="28" rx="4" fill="#10B981" opacity="0.9"/><text x="232" y="7862" fill="#475569" font-family="monospace" font-size="11">55 ns</text><rect x="190" y="7874" width="61.0" height="28" rx="4" fill="#8B5CF6" opacity="0.9"/><text x="256" y="7896" fill="#475569" font-family="monospace" font-size="11">90 ns</text><text x="180" y="7944" fill="#334155" font-family="monospace" font-size="12" text-anchor="end">UUID</text><rect x="190" y="7922" width="63.9" height="28" rx="4" fill="#10B981" opacity="0.9"/><text x="259" y="7944" fill="#475569" font-family="monospace" font-size="11">94 ns</text><rect x="190" y="7956" width="90.3" height="28" rx="4" fill="#8B5CF6" opacity="0.9"/><text x="286" y="7978" fill="#475569" font-family="monospace" font-size="11">133 ns</text><text x="180" y="8026" fill="#334155" font-family="monospace" font-size="12" text-anchor="end">UUID3</text><rect x="190" y="8004" width="61.6" height="28" rx="4" fill="#10B981" opacity="0.9"/><text x="257" y="8026" fill="#475569" font-family="monospace" font-size="11">91 ns</text><rect x="190" y="8038" width="113.1" height="28" rx="4" fill="#8B5CF6" opacity="0.9"/><text x="309" y="8060" fill="#475569" font-family="monospace" font-size="11">167 ns</text><text x="180" y="8108" fill="#334155" font-family="monospace" font-size="12" text-anchor="end">UUID4</text><rect x="190" y="8086" width="63.7" height="28" rx="4" fill="#10B981" opacity="0.9"/><text x="259" y="8108" fill="#475569" font-family="monospace" font-size="11">94 ns</text><rect x="190" y="8120" width="90.8" height="28" rx="4" fill="#8B5CF6" opacity="0.9"/><text x="286" y="8142" fill="#475569" font-family="monospace" font-size="11">134 ns</text><text x="180" y="8190" fill="#334155" font-family="monospace" font-size="12" text-anchor="end">UUID5</text><rect x="190" y="8168" width="64.1" height="28" rx="4" fill="#10B981" opacity="0.9"/><text x="260" y="8190" fill="#475569" font-family="monospace" font-size="11">95 ns</text><rect x="190" y="8202" width="90.9" height="28" rx="4" fill="#8B5CF6" opacity="0.9"/><text x="286" y="8224" fill="#475569" font-family="monospace" font-size="11">134 ns</text><text x="180" y="8272" fill="#334155" font-family="monospace" font-size="12" text-anchor="end">Unique</text><rect x="190" y="8250" width="97.1" height="28" rx="4" fill="#10B981" opacity="0.9"/><text x="293" y="8272" fill="#475569" font-family="monospace" font-size="11">143 ns</text><rect x="190" y="8284" width="120.6" height="28" rx="4" fill="#8B5CF6" opacity="0.9"/><text x="316" y="8306" fill="#475569" font-family="monospace" font-size="11">178 ns</text><text x="180" y="8354" fill="#334155" font-family="monospace" font-size="12" text-anchor="end">Uppercase</text><rect x="190" y="8332" width="29.9" height="28" rx="4" fill="#10B981" opacity="0.9"/><text x="225" y="8354" fill="#475569" font-family="monospace" font-size="11">44 ns</text><rect x="190" y="8366" width="52.2" height="28" rx="4" fill="#8B5CF6" opacity="0.9"/><text x="248" y="8388" fill="#475569" font-family="monospace" font-size="11">77 ns</text><text x="190" y="8474" fill="#94A3B8" font-family="system-ui,sans-serif" font-size="10">Lower is better ▸</text></svg>